<svg xmlns="http://www.w3.org/2000/svg" xmlns:xlink="http://www.w3.org/1999/xlink" width="1321" height="2376" contentScriptType="application/ecmascript" contentStyleType="text/css" style="width:1321px;height:2376px" preserveAspectRatio="none" version="1.1" viewBox="0 0 1321 2376" zoomAndPan="magnify"><g><rect style="stroke:#444;stroke-width:1;stroke-dasharray:7,7" width="844" height="1600" x="14" y="406" fill="#FFF"/><text x="395" y="423.469" fill="#444" font-family="sans-serif" font-size="16" font-weight="bold" lengthAdjust="spacingAndGlyphs" textLength="82">RadixCore</text><text x="401.5" y="438.445" fill="#444" font-family="sans-serif" font-size="12" font-weight="bold" lengthAdjust="spacingAndGlyphs" textLength="69">[Container]</text><rect style="stroke:#78a8d8;stroke-width:1.5" width="187" height="137.773" x="177.5" y="449" fill="#85BBF0"/><text x="198.5" y="474.469" fill="#000" font-family="sans-serif" font-size="16" font-weight="bold" lengthAdjust="spacingAndGlyphs" textLength="140">HTTP/WebSocket</text><text x="242.5" y="493.313" fill="#000" font-family="sans-serif" font-size="16" font-weight="bold" lengthAdjust="spacingAndGlyphs" textLength="57">Service</text><text x="202.5" y="508.289" fill="#000" font-family="sans-serif" font-size="12" font-style="italic" lengthAdjust="spacingAndGlyphs" textLength="137">[Component: Undertow]</text><a target="_top" xlink:actuate="onRequest" xlink:href="http://undertow.io/" xlink:show="new" xlink:title="http://undertow.io/" xlink:type="simple"><text x="215" y="540.844" fill="#00F" font-family="sans-serif" font-size="14" lengthAdjust="spacingAndGlyphs" text-decoration="underline" textLength="67">Undertow</text><line style="stroke:#00f;stroke-width:1" x1="215" x2="282" y1="542.844" y2="542.844"/></a><text x="286" y="540.844" fill="#000" font-family="sans-serif" font-size="14" lengthAdjust="spacingAndGlyphs" textLength="37">is the</text><text x="187.5" y="557.332" fill="#000" font-family="sans-serif" font-size="14" lengthAdjust="spacingAndGlyphs" textLength="163">HTTP/WebSocket server</text><text x="228.5" y="573.82" fill="#000" font-family="sans-serif" font-size="14" lengthAdjust="spacingAndGlyphs" textLength="85">Component.</text><rect style="stroke:#78a8d8;stroke-width:1.5" width="219" height="154.262" x="93.5" y="1177" fill="#85BBF0"/><text x="136" y="1202.469" fill="#000" font-family="sans-serif" font-size="16" font-weight="bold" lengthAdjust="spacingAndGlyphs" textLength="129">Real-time Atom</text><text x="162.5" y="1221.313" fill="#000" font-family="sans-serif" font-size="16" font-weight="bold" lengthAdjust="spacingAndGlyphs" textLength="81">Controller</text><text x="145.5" y="1236.289" fill="#000" font-family="sans-serif" font-size="12" font-style="italic" lengthAdjust="spacingAndGlyphs" textLength="115">[Component: Radix]</text><a target="_top" xlink:actuate="onRequest" xlink:href="https://barrgroup.com/Embedded-Systems/How-To/Introduction-Hierarchical-State-Machines" xlink:show="new" xlink:title="https://barrgroup.com/Embedded-Systems/How-To/Introduction-Hierarchical-State-Machines" xlink:type="simple"><text x="111" y="1268.844" fill="#00F" font-family="sans-serif" font-size="14" lengthAdjust="spacingAndGlyphs" text-decoration="underline" textLength="180">Heirarchical State Machine</text><line style="stroke:#00f;stroke-width:1" x1="111" x2="291" y1="1270.844" y2="1270.844"/></a><text x="103.5" y="1285.332" fill="#000" font-family="sans-serif" font-size="14" lengthAdjust="spacingAndGlyphs" textLength="195">validates Atoms (local state).</text><text x="106.5" y="1301.82" fill="#000" font-family="sans-serif" font-size="14" lengthAdjust="spacingAndGlyphs" textLength="189">Multiple HFSMs are running</text><text x="158" y="1318.309" fill="#000" font-family="sans-serif" font-size="14" lengthAdjust="spacingAndGlyphs" textLength="90">concurrently.</text><rect style="stroke:#78a8d8;stroke-width:1.5" width="219" height="154.262" x="93.5" y="1571" fill="#85BBF0"/><text x="132" y="1596.469" fill="#000" font-family="sans-serif" font-size="16" font-weight="bold" lengthAdjust="spacingAndGlyphs" textLength="137">UTXO Constraint</text><text x="168.5" y="1615.313" fill="#000" font-family="sans-serif" font-size="16" font-weight="bold" lengthAdjust="spacingAndGlyphs" textLength="69">Machine</text><text x="145.5" y="1630.289" fill="#000" font-family="sans-serif" font-size="12" font-style="italic" lengthAdjust="spacingAndGlyphs" textLength="115">[Component: Radix]</text><a target="_top" xlink:actuate="onRequest" xlink:href="https://barrgroup.com/Embedded-Systems/How-To/Introduction-Hierarchical-State-Machines" xlink:show="new" xlink:title="https://barrgroup.com/Embedded-Systems/How-To/Introduction-Hierarchical-State-Machines" xlink:type="simple"><text x="111" y="1662.844" fill="#00F" font-family="sans-serif" font-size="14" lengthAdjust="spacingAndGlyphs" text-decoration="underline" textLength="180">Heirarchical State Machine</text><line style="stroke:#00f;stroke-width:1" x1="111" x2="291" y1="1664.844" y2="1664.844"/></a><text x="103.5" y="1679.332" fill="#000" font-family="sans-serif" font-size="14" lengthAdjust="spacingAndGlyphs" textLength="195">validates Atoms (local state).</text><text x="106.5" y="1695.82" fill="#000" font-family="sans-serif" font-size="14" lengthAdjust="spacingAndGlyphs" textLength="189">Multiple HFSMs are running</text><text x="158" y="1712.309" fill="#000" font-family="sans-serif" font-size="14" lengthAdjust="spacingAndGlyphs" textLength="90">concurrently.</text><rect style="stroke:#78a8d8;stroke-width:1.5" width="195" height="102.441" x="45.5" y="1887.5" fill="#85BBF0"/><text x="85" y="1912.969" fill="#000" font-family="sans-serif" font-size="16" font-weight="bold" lengthAdjust="spacingAndGlyphs" textLength="116">Crypto Engine</text><text x="62.5" y="1927.945" fill="#000" font-family="sans-serif" font-size="12" font-style="italic" lengthAdjust="spacingAndGlyphs" textLength="161">[Component: Bouncy Castle]</text><a target="_top" xlink:actuate="onRequest" xlink:href="https://www.bouncycastle.org/" xlink:show="new" xlink:title="https://www.bouncycastle.org/" xlink:type="simple"><text x="55.5" y="1960.5" fill="#00F" font-family="sans-serif" font-size="14" lengthAdjust="spacingAndGlyphs" text-decoration="underline" textLength="95">Bouncy Castle</text><line style="stroke:#00f;stroke-width:1" x1="55.5" x2="150.5" y1="1962.5" y2="1962.5"/></a><text x="154.5" y="1960.5" fill="#000" font-family="sans-serif" font-size="14" lengthAdjust="spacingAndGlyphs" textLength="72">is used for</text><text x="56.5" y="1976.988" fill="#000" font-family="sans-serif" font-size="14" lengthAdjust="spacingAndGlyphs" textLength="173">cryptograthic operations.</text><rect style="stroke:#78a8d8;stroke-width:1.5" width="203" height="135.418" x="214.5" y="741" fill="#85BBF0"/><text x="287.5" y="766.469" fill="#000" font-family="sans-serif" font-size="16" font-weight="bold" lengthAdjust="spacingAndGlyphs" textLength="57">Tempo</text><text x="258.5" y="781.445" fill="#000" font-family="sans-serif" font-size="12" font-style="italic" lengthAdjust="spacingAndGlyphs" textLength="115">[Component: Radix]</text><text x="236.5" y="814" fill="#000" font-family="sans-serif" font-size="14" lengthAdjust="spacingAndGlyphs" textLength="155">Proprietary Consensus</text><text x="236.5" y="830.488" fill="#000" font-family="sans-serif" font-size="14" lengthAdjust="spacingAndGlyphs" textLength="155">Engine responsible for</text><text x="224.5" y="846.977" fill="#000" font-family="sans-serif" font-size="14" lengthAdjust="spacingAndGlyphs" textLength="179">maintaining a conflict free</text><text x="274" y="863.465" fill="#000" font-family="sans-serif" font-size="14" lengthAdjust="spacingAndGlyphs" textLength="84">global state.</text><rect style="stroke:#78a8d8;stroke-width:1.5" width="196" height="118.93" x="626" y="749" fill="#85BBF0"/><text x="651" y="774.469" fill="#000" font-family="sans-serif" font-size="16" font-weight="bold" lengthAdjust="spacingAndGlyphs" textLength="146">Time Sync Service</text><text x="666.5" y="789.445" fill="#000" font-family="sans-serif" font-size="12" font-style="italic" lengthAdjust="spacingAndGlyphs" textLength="115">[Component: Radix]</text><text x="636" y="822" fill="#000" font-family="sans-serif" font-size="14" lengthAdjust="spacingAndGlyphs" textLength="172">Service that synchronises</text><text x="639" y="838.488" fill="#000" font-family="sans-serif" font-size="14" lengthAdjust="spacingAndGlyphs" textLength="166">wall-clock time between</text><text x="649.5" y="854.977" fill="#000" font-family="sans-serif" font-size="14" lengthAdjust="spacingAndGlyphs" textLength="149">nodes in the network.</text><rect style="stroke:#78a8d8;stroke-width:1.5" width="216" height="118.93" x="379" y="1194.5" fill="#85BBF0"/><text x="412.5" y="1219.969" fill="#000" font-family="sans-serif" font-size="16" font-weight="bold" lengthAdjust="spacingAndGlyphs" textLength="149">Atom Sync Service</text><text x="429.5" y="1234.945" fill="#000" font-family="sans-serif" font-size="12" font-style="italic" lengthAdjust="spacingAndGlyphs" textLength="115">[Component: Radix]</text><text x="399" y="1267.5" fill="#000" font-family="sans-serif" font-size="14" lengthAdjust="spacingAndGlyphs" textLength="172">Service that synchronises</text><text x="389" y="1283.988" fill="#000" font-family="sans-serif" font-size="14" lengthAdjust="spacingAndGlyphs" textLength="192">Ledger state between nodes</text><text x="401.5" y="1300.477" fill="#000" font-family="sans-serif" font-size="14" lengthAdjust="spacingAndGlyphs" textLength="39">in the</text><text x="444.5" y="1300.477" fill="#000" font-family="sans-serif" font-size="14" font-weight="bold" lengthAdjust="spacingAndGlyphs" textLength="38">same</text><text x="486.5" y="1300.477" fill="#000" font-family="sans-serif" font-size="14" lengthAdjust="spacingAndGlyphs" textLength="86">shard space.</text><rect style="stroke:#78a8d8;stroke-width:1.5" width="209" height="151.906" x="630.5" y="1178" fill="#85BBF0"/><text x="676" y="1203.469" fill="#000" font-family="sans-serif" font-size="16" font-weight="bold" lengthAdjust="spacingAndGlyphs" textLength="118">Gossip Service</text><text x="677.5" y="1218.445" fill="#000" font-family="sans-serif" font-size="12" font-style="italic" lengthAdjust="spacingAndGlyphs" textLength="115">[Component: Radix]</text><text x="640.5" y="1251" fill="#000" font-family="sans-serif" font-size="14" lengthAdjust="spacingAndGlyphs" textLength="185">Service that sends/receives</text><text x="649" y="1267.488" fill="#000" font-family="sans-serif" font-size="14" lengthAdjust="spacingAndGlyphs" textLength="168">Gossip about Atoms and</text><text x="654" y="1283.977" fill="#000" font-family="sans-serif" font-size="14" lengthAdjust="spacingAndGlyphs" textLength="158">other data (e.g. RTP) to</text><text x="661.5" y="1300.465" fill="#000" font-family="sans-serif" font-size="14" lengthAdjust="spacingAndGlyphs" textLength="143">random nodes in the</text><text x="705" y="1316.953" fill="#000" font-family="sans-serif" font-size="14" lengthAdjust="spacingAndGlyphs" textLength="60">network.</text><rect style="stroke:#78a8d8;stroke-width:1.5" width="160" height="102.441" x="569" y="1597" fill="#85BBF0"/><text x="593.5" y="1622.469" fill="#000" font-family="sans-serif" font-size="16" font-weight="bold" lengthAdjust="spacingAndGlyphs" textLength="111">Peer Manager</text><text x="591.5" y="1637.445" fill="#000" font-family="sans-serif" font-size="12" font-style="italic" lengthAdjust="spacingAndGlyphs" textLength="115">[Component: Radix]</text><text x="582.5" y="1670" fill="#000" font-family="sans-serif" font-size="14" lengthAdjust="spacingAndGlyphs" textLength="129">Peer Discovery and</text><text x="579" y="1686.488" fill="#000" font-family="sans-serif" font-size="14" lengthAdjust="spacingAndGlyphs" textLength="140">Management service</text><rect style="stroke:#78a8d8;stroke-width:1.5" width="186" height="118.93" x="348" y="1588.5" fill="#85BBF0"/><text x="396" y="1613.969" fill="#000" font-family="sans-serif" font-size="16" font-weight="bold" lengthAdjust="spacingAndGlyphs" textLength="90">Atom Store</text><text x="383.5" y="1628.945" fill="#000" font-family="sans-serif" font-size="12" font-style="italic" lengthAdjust="spacingAndGlyphs" textLength="115">[Component: Radix]</text><text x="358" y="1661.5" fill="#000" font-family="sans-serif" font-size="14" lengthAdjust="spacingAndGlyphs" textLength="162">Optimises DB access for</text><text x="372.5" y="1677.988" fill="#000" font-family="sans-serif" font-size="14" lengthAdjust="spacingAndGlyphs" textLength="133">Radix (e.g. through</text><text x="397.5" y="1694.477" fill="#000" font-family="sans-serif" font-size="14" lengthAdjust="spacingAndGlyphs" textLength="87">Bloomfilters)</text><rect style="stroke:#78a8d8;stroke-width:1.5" width="193" height="118.93" x="448.5" y="1879" fill="#85BBF0"/><text x="463.5" y="1904.469" fill="#000" font-family="sans-serif" font-size="16" font-weight="bold" lengthAdjust="spacingAndGlyphs" textLength="163">Key/Value Database</text><text x="462" y="1919.445" fill="#000" font-family="sans-serif" font-size="12" font-style="italic" lengthAdjust="spacingAndGlyphs" textLength="166">[Component: Berkeley DB JE]</text><text x="458.5" y="1952" fill="#000" font-family="sans-serif" font-size="14" lengthAdjust="spacingAndGlyphs" textLength="169">Swappable K/V database</text><text x="461" y="1968.488" fill="#000" font-family="sans-serif" font-size="14" lengthAdjust="spacingAndGlyphs" textLength="164">which stores Atoms and</text><text x="484" y="1984.977" fill="#000" font-family="sans-serif" font-size="14" lengthAdjust="spacingAndGlyphs" textLength="122">various metadata.</text><rect style="stroke:#8a8a8a;stroke-width:1.5" width="191" height="104.797" x="175.5" y="8" fill="#999"/><text x="201.5" y="33.469" fill="#FFF" font-family="sans-serif" font-size="16" font-weight="bold" lengthAdjust="spacingAndGlyphs" textLength="139">WebSocket Client</text><text x="186" y="66.867" fill="#FFF" font-family="sans-serif" font-size="14" lengthAdjust="spacingAndGlyphs" textLength="166">Custom Application that</text><text x="188.5" y="83.356" fill="#FFF" font-family="sans-serif" font-size="14" lengthAdjust="spacingAndGlyphs" textLength="161">uses the WebSocket API</text><text x="185.5" y="99.844" fill="#FFF" font-family="sans-serif" font-size="14" lengthAdjust="spacingAndGlyphs" textLength="171">directly or indirectly (lib).</text><rect style="stroke:#8a8a8a;stroke-width:1.5" width="136" height="71.82" x="1126" y="772.5" fill="#999"/><text x="1144" y="797.969" fill="#FFF" font-family="sans-serif" font-size="16" font-weight="bold" lengthAdjust="spacingAndGlyphs" textLength="100">Core Node 1</text><text x="1136" y="831.367" fill="#FFF" font-family="sans-serif" font-size="14" lengthAdjust="spacingAndGlyphs" textLength="116">Other Core Node</text><rect style="stroke:#8a8a8a;stroke-width:1.5" width="263" height="88.309" x="866.5" y="1422" fill="#999"/><text x="948" y="1447.469" fill="#FFF" font-family="sans-serif" font-size="16" font-weight="bold" lengthAdjust="spacingAndGlyphs" textLength="100">Core Node 2</text><text x="876.5" y="1480.867" fill="#FFF" font-family="sans-serif" font-size="14" lengthAdjust="spacingAndGlyphs" textLength="154">Other Core Node in an</text><text x="1034.5" y="1480.867" fill="#FFF" font-family="sans-serif" font-size="14" font-weight="bold" lengthAdjust="spacingAndGlyphs" textLength="85">overlapping</text><text x="958.5" y="1497.355" fill="#FFF" font-family="sans-serif" font-size="14" lengthAdjust="spacingAndGlyphs" textLength="83">Shard space</text><rect style="stroke:#8a8a8a;stroke-width:1.5" width="136" height="71.82" x="1165" y="1430" fill="#999"/><text x="1183" y="1455.469" fill="#FFF" font-family="sans-serif" font-size="16" font-weight="bold" lengthAdjust="spacingAndGlyphs" textLength="100">Core Node 3</text><text x="1175" y="1488.867" fill="#FFF" font-family="sans-serif" font-size="14" lengthAdjust="spacingAndGlyphs" textLength="116">Other Core Node</text><rect style="stroke:#8a8a8a;stroke-width:1.5" width="185" height="104.797" x="885.5" y="974" fill="#999"/><text x="934" y="999.469" fill="#FFF" font-family="sans-serif" font-size="16" font-weight="bold" lengthAdjust="spacingAndGlyphs" textLength="88">NTP Server</text><text x="895.5" y="1032.867" fill="#FFF" font-family="sans-serif" font-size="14" lengthAdjust="spacingAndGlyphs" textLength="161">Standard Network Time</text><text x="900" y="1049.355" fill="#FFF" font-family="sans-serif" font-size="14" lengthAdjust="spacingAndGlyphs" textLength="152">Protocol Server on the</text><text x="949" y="1065.844" fill="#FFF" font-family="sans-serif" font-size="14" lengthAdjust="spacingAndGlyphs" textLength="58">internet.</text><rect style="stroke:#3c7fc0;stroke-width:1.5" width="176" height="118.93" x="1106" y="967" fill="#438DD5"/><text x="1145.5" y="992.469" fill="#FFF" font-family="sans-serif" font-size="16" font-weight="bold" lengthAdjust="spacingAndGlyphs" textLength="97">Rate Limiter</text><text x="1123" y="1007.445" fill="#FFF" font-family="sans-serif" font-size="12" font-style="italic" lengthAdjust="spacingAndGlyphs" textLength="142">[Container: Linux Kernel]</text><text x="1127.5" y="1040" fill="#FFF" font-family="sans-serif" font-size="14" lengthAdjust="spacingAndGlyphs" textLength="129">DDoS mitigation of</text><text x="1131.5" y="1056.488" fill="#FFF" font-family="sans-serif" font-size="14" lengthAdjust="spacingAndGlyphs" textLength="121">Gossip/Sync from</text><text x="1116" y="1072.977" fill="#FFF" font-family="sans-serif" font-size="14" lengthAdjust="spacingAndGlyphs" textLength="156">malicious/faulty nodes</text><rect style="stroke:#3c7fc0;stroke-width:1.5" width="211" height="133.063" x="165.5" y="204" fill="#438DD5"/><text x="214.5" y="229.469" fill="#FFF" font-family="sans-serif" font-size="16" font-weight="bold" lengthAdjust="spacingAndGlyphs" textLength="113">Reverse Proxy</text><text x="182" y="244.445" fill="#FFF" font-family="sans-serif" font-size="12" font-style="italic" lengthAdjust="spacingAndGlyphs" textLength="174">[Container: NGINX/HAProxy in</text><text x="248.5" y="258.578" fill="#FFF" font-family="sans-serif" font-size="12" font-style="italic" lengthAdjust="spacingAndGlyphs" textLength="45">Docker]</text><text x="192.5" y="291.133" fill="#FFF" font-family="sans-serif" font-size="14" lengthAdjust="spacingAndGlyphs" textLength="153">TLS termination, DDoS</text><text x="178.5" y="307.621" fill="#FFF" font-family="sans-serif" font-size="14" lengthAdjust="spacingAndGlyphs" textLength="181">mitigation, authentication,</text><text x="175.5" y="324.109" fill="#FFF" font-family="sans-serif" font-size="14" lengthAdjust="spacingAndGlyphs" textLength="191">and filtering of API requests</text><path fill="#438DD5" d="M435,2108.5 C435,2098.5 545,2098.5 545,2098.5 C545,2098.5 655,2098.5 655,2108.5 L655,2199.9414 C655,2209.9414 545,2209.9414 545,2209.9414 C545,2209.9414 435,2209.9414 435,2199.9414 L435,2108.5" style="stroke:#3c7fc0;stroke-width:1.5"/><path fill="none" d="M435,2108.5 C435,2118.5 545,2118.5 545,2118.5 C545,2118.5 655,2118.5 655,2108.5" style="stroke:#3c7fc0;stroke-width:1.5"/><text x="496" y="2137.969" fill="#FFF" font-family="sans-serif" font-size="16" font-weight="bold" lengthAdjust="spacingAndGlyphs" textLength="98">Ledger Data</text><text x="465.5" y="2152.945" fill="#FFF" font-family="sans-serif" font-size="12" font-style="italic" lengthAdjust="spacingAndGlyphs" textLength="159">[Container: Docker Volume]</text><text x="445" y="2185.5" fill="#FFF" font-family="sans-serif" font-size="14" lengthAdjust="spacingAndGlyphs" textLength="200">stores ledger data, metadata,</text><text x="464.5" y="2201.988" fill="#FFF" font-family="sans-serif" font-size="14" lengthAdjust="spacingAndGlyphs" textLength="161">index, and bloom filter.</text><path fill="#438DD5" d="M53.5,2100 C53.5,2090 143,2090 143,2090 C143,2090 232.5,2090 232.5,2100 L232.5,2207.9297 C232.5,2217.9297 143,2217.9297 143,2217.9297 C143,2217.9297 53.5,2217.9297 53.5,2207.9297 L53.5,2100" style="stroke:#3c7fc0;stroke-width:1.5"/><path fill="none" d="M53.5,2100 C53.5,2110 143,2110 143,2110 C143,2110 232.5,2110 232.5,2100" style="stroke:#3c7fc0;stroke-width:1.5"/><text x="114" y="2129.469" fill="#FFF" font-family="sans-serif" font-size="16" font-weight="bold" lengthAdjust="spacingAndGlyphs" textLength="58">Secrets</text><text x="63.5" y="2144.445" fill="#FFF" font-family="sans-serif" font-size="12" font-style="italic" lengthAdjust="spacingAndGlyphs" textLength="159">[Container: Docker Volume]</text><text x="81.5" y="2177" fill="#FFF" font-family="sans-serif" font-size="14" lengthAdjust="spacingAndGlyphs" textLength="119">stores node keys,</text><text x="74" y="2193.488" fill="#FFF" font-family="sans-serif" font-size="14" lengthAdjust="spacingAndGlyphs" textLength="134">certificates, and API</text><text x="104.5" y="2209.977" fill="#FFF" font-family="sans-serif" font-size="14" lengthAdjust="spacingAndGlyphs" textLength="77">passwords.</text><path id="ws_app1-nginx" fill="none" d="M271,113.2208 C271,139.0701 271,170.5947 271,198.6144" style="stroke:#666;stroke-width:1"/><polygon fill="#666" points="271 203.803 275 194.803 271 198.803 267 194.803 271 203.803" style="stroke:#666;stroke-width:1"/><text x="307.5" y="156.568" fill="#666" font-family="sans-serif" font-size="13" font-weight="bold" lengthAdjust="spacingAndGlyphs" textLength="31">uses</text><text x="272" y="170.912" fill="#666" font-family="sans-serif" font-size="12" font-style="italic" lengthAdjust="spacingAndGlyphs" textLength="102">[HTTPS port 443]</text><path id="nginx-api" fill="none" d="M271,337.151 C271,369.9041 271,409.4919 271,443.2685" style="stroke:#666;stroke-width:1"/><polygon fill="#666" points="271 448.638 275 439.638 271 443.638 267 439.638 271 448.638" style="stroke:#666;stroke-width:1"/><text x="285.5" y="380.568" fill="#666" font-family="sans-serif" font-size="13" font-weight="bold" lengthAdjust="spacingAndGlyphs" textLength="77">forwards to</text><text x="272" y="394.912" fill="#666" font-family="sans-serif" font-size="12" font-style="italic" lengthAdjust="spacingAndGlyphs" textLength="104">[HTTP port 8080]</text><path id="api-atom_controller" fill="none" d="M188.0843,587.3551 C146.7802,627.4341 101.0444,681.6101 79,741 C24.1761,888.701 98.9368,1069.4188 153.9419,1172.1705" style="stroke:#666;stroke-width:1"/><polygon fill="#666" points="156.381 1176.701 155.636 1166.88 154.011 1172.299 148.593 1170.673 156.381 1176.701" style="stroke:#666;stroke-width:1"/><text x="80" y="806.068" fill="#666" font-family="sans-serif" font-size="13" font-weight="bold" lengthAdjust="spacingAndGlyphs" textLength="112">queries/submits</text><text x="88.5" y="821.379" fill="#666" font-family="sans-serif" font-size="13" font-weight="bold" lengthAdjust="spacingAndGlyphs" textLength="99">Atoms to/from</text><path id="api-rtp" fill="none" d="M364.5871,578.0156 C441.0468,627.0476 548.7762,696.1324 626.3236,745.862" style="stroke:#666;stroke-width:1"/><polygon fill="#666" points="630.922 748.811 625.505 740.585 626.713 746.111 621.186 747.319 630.922 748.811" style="stroke:#666;stroke-width:1"/><text x="521" y="661.568" fill="#666" font-family="sans-serif" font-size="13" font-weight="bold" lengthAdjust="spacingAndGlyphs" textLength="117">gets current time</text><text x="565.5" y="676.879" fill="#666" font-family="sans-serif" font-size="13" font-weight="bold" lengthAdjust="spacingAndGlyphs" textLength="32">from</text><path id="atom_controller-cm" fill="none" d="M203,1331.3716 C203,1398.8627 203,1496.5022 203,1565.4742" style="stroke:#666;stroke-width:1"/><polygon fill="#666" points="203 1570.805 207 1561.805 203 1565.805 199 1561.805 203 1570.805" style="stroke:#666;stroke-width:1"/><text x="204" y="1471.068" fill="#666" font-family="sans-serif" font-size="13" font-weight="bold" lengthAdjust="spacingAndGlyphs" textLength="31">uses</text><path id="cm-crypto" fill="none" d="M187.0786,1725.086 C176.8828,1774.4509 163.8811,1837.4008 154.647,1882.1093" style="stroke:#666;stroke-width:1"/><polygon fill="#666" points="153.596 1887.195 159.334 1879.19 154.608 1882.299 151.5 1877.572 153.596 1887.195" style="stroke:#666;stroke-width:1"/><text x="175" y="1807.068" fill="#666" font-family="sans-serif" font-size="13" font-weight="bold" lengthAdjust="spacingAndGlyphs" textLength="31">uses</text><path id="tempo-atom_controller" fill="none" d="M225.1043,876.0601 C198.2962,901.2992 172.321,932.3486 158,967 C130.878,1032.6249 147.1994,1112.8741 167.3828,1171.8126" style="stroke:#666;stroke-width:1"/><polygon fill="#666" points="169.093 1176.732 169.915 1166.918 167.451 1172.009 162.359 1169.545 169.093 1176.732" style="stroke:#666;stroke-width:1"/><text x="159" y="1024.068" fill="#666" font-family="sans-serif" font-size="13" font-weight="bold" lengthAdjust="spacingAndGlyphs" textLength="112">queries/submits</text><text x="167.5" y="1039.379" fill="#666" font-family="sans-serif" font-size="13" font-weight="bold" lengthAdjust="spacingAndGlyphs" textLength="99">Atoms to/from</text><path id="atom_controller-atomstore" fill="none" d="M249.7372,1331.3716 C294.3121,1405.1638 360.6578,1514.9965 402.3369,1583.9946" style="stroke:#666;stroke-width:1"/><polygon fill="#666" points="405.046 1588.479 403.816 1578.708 402.461 1584.2 396.969 1582.844 405.046 1588.479" style="stroke:#666;stroke-width:1"/><text x="358" y="1463.568" fill="#666" font-family="sans-serif" font-size="13" font-weight="bold" lengthAdjust="spacingAndGlyphs" textLength="119">write/read Atoms</text><text x="393.5" y="1478.879" fill="#666" font-family="sans-serif" font-size="13" font-weight="bold" lengthAdjust="spacingAndGlyphs" textLength="52">to/from</text><path id="atomstore-db" fill="none" d="M449.0957,1707.8787 C454.7058,1741.0342 463.619,1782.5821 477,1818 C484.2003,1837.0583 494.0932,1856.7146 504.1045,1874.4808" style="stroke:#666;stroke-width:1"/><polygon fill="#666" points="506.651 1878.955 505.676 1869.155 504.178 1874.61 498.723 1873.111 506.651 1878.955" style="stroke:#666;stroke-width:1"/><text x="478" y="1799.568" fill="#666" font-family="sans-serif" font-size="13" font-weight="bold" lengthAdjust="spacingAndGlyphs" textLength="119">write/read Atoms</text><text x="513.5" y="1814.879" fill="#666" font-family="sans-serif" font-size="13" font-weight="bold" lengthAdjust="spacingAndGlyphs" textLength="52">to/from</text><path id="db-ledger" fill="none" d="M545,1998.2426 C545,2027.798 545,2063.4108 545,2093.1194" style="stroke:#666;stroke-width:1"/><polygon fill="#666" points="545 2098.214 549 2089.214 545 2093.214 541 2089.214 545 2098.214" style="stroke:#666;stroke-width:1"/><text x="546" y="2041.568" fill="#666" font-family="sans-serif" font-size="13" font-weight="bold" lengthAdjust="spacingAndGlyphs" textLength="136">write/read data and</text><text x="569" y="2056.879" fill="#666" font-family="sans-serif" font-size="13" font-weight="bold" lengthAdjust="spacingAndGlyphs" textLength="94">index to/from</text><path id="tempo-atomsync" fill="none" d="M312.5191,876.2845 C312.0245,934.2378 317.306,1018.6896 346,1086 C362.5056,1124.7188 391.0453,1161.3229 418.1495,1190.4198" style="stroke:#666;stroke-width:1"/><polygon fill="#666" points="421.79 1194.293 418.541 1184.996 418.366 1190.65 412.712 1190.475 421.79 1194.293" style="stroke:#666;stroke-width:1"/><text x="347" y="1024.068" fill="#666" font-family="sans-serif" font-size="13" font-weight="bold" lengthAdjust="spacingAndGlyphs" textLength="133">reads/writes Atoms</text><text x="389.5" y="1039.379" fill="#666" font-family="sans-serif" font-size="13" font-weight="bold" lengthAdjust="spacingAndGlyphs" textLength="52">to/from</text><path id="tempo-gossip_service" fill="none" d="M393.6585,876.0182 C424.1564,903.4596 458.9771,935.9677 489,967 C524.5679,1003.7636 608.0424,1102.1818 667.8869,1173.5305" style="stroke:#666;stroke-width:1"/><polygon fill="#666" points="671.435 1177.762 668.717 1168.295 668.222 1173.93 662.587 1173.435 671.435 1177.762" style="stroke:#666;stroke-width:1"/><text x="594" y="1024.068" fill="#666" font-family="sans-serif" font-size="13" font-weight="bold" lengthAdjust="spacingAndGlyphs" textLength="120">reads/writes data</text><text x="630" y="1039.379" fill="#666" font-family="sans-serif" font-size="13" font-weight="bold" lengthAdjust="spacingAndGlyphs" textLength="52">to/from</text><path id="tempo-crypto" fill="none" d="M214.4937,869.6465 C193.6467,883.4038 175.4687,896.6738 167,906 C57.9548,1026.0877 57,1091.7906 57,1254 C57,1254 57,1254 57,1802 C57,1831.5322 71.5884,1859.8927 88.7484,1883.037" style="stroke:#666;stroke-width:1"/><polygon fill="#666" points="91.98 1887.297 89.728 1877.709 88.958 1883.313 83.354 1882.544 91.98 1887.297" style="stroke:#666;stroke-width:1"/><text x="58" y="1471.068" fill="#666" font-family="sans-serif" font-size="13" font-weight="bold" lengthAdjust="spacingAndGlyphs" textLength="31">uses</text><path id="rtp-gossip_service" fill="none" d="M725.4721,868.1198 C727.4093,946.5779 730.8224,1084.8063 732.9944,1172.7727" style="stroke:#666;stroke-width:1"/><polygon fill="#666" points="733.123 1177.969 736.899 1168.873 732.999 1172.97 728.902 1169.071 733.123 1177.969" style="stroke:#666;stroke-width:1"/><text x="731" y="1024.068" fill="#666" font-family="sans-serif" font-size="13" font-weight="bold" lengthAdjust="spacingAndGlyphs" textLength="120">reads/writes time</text><text x="767" y="1039.379" fill="#666" font-family="sans-serif" font-size="13" font-weight="bold" lengthAdjust="spacingAndGlyphs" textLength="52">to/from</text><path id="crypto-secrets" fill="none" d="M143,1989.5705 C143,2017.9262 143,2053.6031 143,2084.4716" style="stroke:#666;stroke-width:1"/><polygon fill="#666" points="143 2089.778 147 2080.778 143 2084.778 139 2080.778 143 2089.778" style="stroke:#666;stroke-width:1"/><text x="144" y="2049.068" fill="#666" font-family="sans-serif" font-size="13" font-weight="bold" lengthAdjust="spacingAndGlyphs" textLength="137">write/read node.key</text><path id="rtp-ntp1" fill="none" d="M793.4066,868.0695 C830.5373,899.9376 876.001,938.9576 912.5179,970.2988" style="stroke:#666;stroke-width:1"/><polygon fill="#666" points="916.473 973.693 912.249 964.797 912.679 970.437 907.039 970.867 916.473 973.693" style="stroke:#666;stroke-width:1"/><text x="867" y="919.568" fill="#666" font-family="sans-serif" font-size="13" font-weight="bold" lengthAdjust="spacingAndGlyphs" textLength="108">syncs time from</text><text x="877" y="933.912" fill="#666" font-family="sans-serif" font-size="12" font-style="italic" lengthAdjust="spacingAndGlyphs" textLength="88">[NTP port 123]</text><path id="gossip_service-peermanager" fill="none" d="M718.3164,1330.4343 C701.6067,1406.9881 676.2822,1523.0095 661.3141,1591.5843" style="stroke:#666;stroke-width:1"/><polygon fill="#666" points="660.166 1596.846 665.993 1588.906 661.232 1591.961 658.177 1587.2 660.166 1596.846" style="stroke:#666;stroke-width:1"/><text x="699" y="1463.568" fill="#666" font-family="sans-serif" font-size="13" font-weight="bold" lengthAdjust="spacingAndGlyphs" textLength="113">queries/updates</text><text x="711" y="1478.879" fill="#666" font-family="sans-serif" font-size="13" font-weight="bold" lengthAdjust="spacingAndGlyphs" textLength="93">Peers from/to</text><path id="gossip_service-node3" fill="none" d="M839.6706,1270.9285 C918.0577,1286.5691 1026.1159,1314.5671 1112,1361 C1143.2237,1377.881 1173.3864,1404.0247 1195.7867,1426.0011" style="stroke:#666;stroke-width:1"/><polygon fill="#666" points="1199.595 1429.771 1196.013 1420.597 1196.042 1426.253 1190.385 1426.282 1199.595 1429.771" style="stroke:#666;stroke-width:1"/><text x="1174" y="1374.568" fill="#666" font-family="sans-serif" font-size="13" font-weight="bold" lengthAdjust="spacingAndGlyphs" textLength="68">gossips to</text><text x="1156" y="1388.912" fill="#666" font-family="sans-serif" font-size="12" font-style="italic" lengthAdjust="spacingAndGlyphs" textLength="104">[UDP port 10000]</text><path id="atomsync-node2" fill="none" d="M579.7015,1313.6457 C590.7404,1319.8483 601.9977,1325.7813 613,1331 C636.7023,1342.2427 761.9076,1385.6844 863.1974,1420.2925" style="stroke:#666;stroke-width:1"/><polygon fill="#666" points="868.002 1421.934 860.778 1415.239 863.27 1420.317 858.192 1422.81 868.002 1421.934" style="stroke:#666;stroke-width:1"/><text x="802.5" y="1374.568" fill="#666" font-family="sans-serif" font-size="13" font-weight="bold" lengthAdjust="spacingAndGlyphs" textLength="55">syncs to</text><text x="778" y="1388.912" fill="#666" font-family="sans-serif" font-size="12" font-style="italic" lengthAdjust="spacingAndGlyphs" textLength="104">[UDP port 10000]</text><path id="atomsync-peermanager" fill="none" d="M495.83,1313.7556 C505.157,1367.0003 522.6634,1446.1442 552,1510 C565.3483,1539.0546 584.9549,1568.428 603.0535,1592.5633" style="stroke:#666;stroke-width:1"/><polygon fill="#666" points="606.178 1596.698 603.944 1587.106 603.164 1592.709 597.561 1591.929 606.178 1596.698" style="stroke:#666;stroke-width:1"/><text x="553" y="1463.568" fill="#666" font-family="sans-serif" font-size="13" font-weight="bold" lengthAdjust="spacingAndGlyphs" textLength="113">queries/updates</text><text x="565" y="1478.879" fill="#666" font-family="sans-serif" font-size="13" font-weight="bold" lengthAdjust="spacingAndGlyphs" textLength="93">Peers from/to</text><path id="peermanager-db" fill="none" d="M639.1615,1699.105 C631.8257,1733.3345 620.568,1779.082 606,1818 C598.9525,1836.8271 589.7838,1856.5589 580.7051,1874.4778" style="stroke:#666;stroke-width:1"/><polygon fill="#666" points="578.4 1878.993 586.055 1872.796 580.674 1874.539 578.93 1869.158 578.4 1878.993" style="stroke:#666;stroke-width:1"/><text x="617" y="1799.568" fill="#666" font-family="sans-serif" font-size="13" font-weight="bold" lengthAdjust="spacingAndGlyphs" textLength="137">write/read peer info</text><text x="681" y="1814.879" fill="#666" font-family="sans-serif" font-size="13" font-weight="bold" lengthAdjust="spacingAndGlyphs" textLength="13">to</text><path id="node1-iptables" fill="none" d="M1194,844.9883 C1194,876.7727 1194,923.6118 1194,961.7474" style="stroke:#666;stroke-width:1"/><polygon fill="#666" points="1194 966.829 1198 957.829 1194 961.829 1190 957.829 1194 966.829" style="stroke:#666;stroke-width:1"/><text x="1213" y="919.568" fill="#666" font-family="sans-serif" font-size="13" font-weight="bold" lengthAdjust="spacingAndGlyphs" textLength="68">gossips to</text><text x="1195" y="933.912" fill="#666" font-family="sans-serif" font-size="12" font-style="italic" lengthAdjust="spacingAndGlyphs" textLength="104">[UDP port 10000]</text><path id="iptables-gossip_service" fill="none" d="M1105.7494,1076.6218 C1099.7661,1079.8391 1093.8094,1082.9915 1088,1086 C1007.353,1127.7652 914.5688,1171.7695 844.3698,1204.2611" style="stroke:#666;stroke-width:1"/><polygon fill="#666" points="839.779 1206.384 849.627 1206.237 844.317 1204.285 846.268 1198.976 839.779 1206.384" style="stroke:#666;stroke-width:1"/><text x="1035.5" y="1129.568" fill="#666" font-family="sans-serif" font-size="13" font-weight="bold" lengthAdjust="spacingAndGlyphs" textLength="77">forwards to</text><text x="1022" y="1143.912" fill="#666" font-family="sans-serif" font-size="12" font-style="italic" lengthAdjust="spacingAndGlyphs" textLength="104">[UDP port 10000]</text><rect style="stroke:#000;stroke-width:1" width="199" height="129.418" x="1111" y="2236" fill="#DDD" rx="5" ry="5"/><text x="1192" y="2256.535" fill="#000" font-family="sans-serif" font-size="14" font-weight="bold" lengthAdjust="spacingAndGlyphs" textLength="35">Type</text><rect style="stroke:none;stroke-width:1" width="70" height="16.488" x="1117" y="2259.488" fill="#08427B"/><text x="1191" y="2273.023" fill="#000" font-family="sans-serif" font-size="14" lengthAdjust="spacingAndGlyphs" textLength="48">person</text><rect style="stroke:none;stroke-width:1" width="70" height="16.488" x="1117" y="2275.977" fill="#686868"/><text x="1191" y="2289.512" fill="#000" font-family="sans-serif" font-size="14" lengthAdjust="spacingAndGlyphs" textLength="109">external person</text><rect style="stroke:none;stroke-width:1" width="70" height="16.488" x="1117" y="2292.465" fill="#1168BD"/><text x="1191" y="2306" fill="#000" font-family="sans-serif" font-size="14" lengthAdjust="spacingAndGlyphs" textLength="47">system</text><rect style="stroke:none;stroke-width:1" width="70" height="16.488" x="1117" y="2308.953" fill="#999"/><text x="1191" y="2322.488" fill="#000" font-family="sans-serif" font-size="14" lengthAdjust="spacingAndGlyphs" textLength="108">external system</text><rect style="stroke:none;stroke-width:1" width="70" height="16.488" x="1117" y="2325.441" fill="#438DD5"/><text x="1191" y="2338.977" fill="#000" font-family="sans-serif" font-size="14" lengthAdjust="spacingAndGlyphs" textLength="65">container</text><rect style="stroke:none;stroke-width:1" width="70" height="16.488" x="1117" y="2341.93" fill="#85BBF0"/><text x="1191" y="2355.465" fill="#000" font-family="sans-serif" font-size="14" lengthAdjust="spacingAndGlyphs" textLength="78">component</text><line style="stroke:#000;stroke-width:1" x1="1117" x2="1304" y1="2243" y2="2243"/><line style="stroke:#000;stroke-width:1" x1="1117" x2="1304" y1="2259.488" y2="2259.488"/><line style="stroke:#000;stroke-width:1" x1="1117" x2="1304" y1="2275.977" y2="2275.977"/><line style="stroke:#000;stroke-width:1" x1="1117" x2="1304" y1="2292.465" y2="2292.465"/><line style="stroke:#000;stroke-width:1" x1="1117" x2="1304" y1="2308.953" y2="2308.953"/><line style="stroke:#000;stroke-width:1" x1="1117" x2="1304" y1="2325.441" y2="2325.441"/><line style="stroke:#000;stroke-width:1" x1="1117" x2="1304" y1="2341.93" y2="2341.93"/><line style="stroke:#000;stroke-width:1" x1="1117" x2="1304" y1="2358.418" y2="2358.418"/><line style="stroke:#000;stroke-width:1" x1="1117" x2="1117" y1="2243" y2="2358.418"/><line style="stroke:#000;stroke-width:1" x1="1187" x2="1187" y1="2243" y2="2358.418"/><line style="stroke:#000;stroke-width:1" x1="1304" x2="1304" y1="2243" y2="2358.418"/></g></svg>