<svg xmlns="http://www.w3.org/2000/svg" xmlns:xlink="http://www.w3.org/1999/xlink" width="964" height="1342" contentScriptType="application/ecmascript" contentStyleType="text/css" style="width:964px;height:1342px" preserveAspectRatio="none" version="1.1" viewBox="0 0 964 1342" zoomAndPan="magnify"><g><text x="381.5" y="17.402" fill="#000" font-family="sans-serif" font-size="18" lengthAdjust="spacingAndGlyphs" textLength="199">The RadixDLT Network</text><rect style="stroke:#444;stroke-width:1;stroke-dasharray:7,7" width="861" height="579" x="53" y="305.199" fill="#FFF"/><text x="437" y="322.668" fill="#444" font-family="sans-serif" font-size="16" font-weight="bold" lengthAdjust="spacingAndGlyphs" textLength="93">Core Nodes</text><text x="457" y="337.644" fill="#444" font-family="sans-serif" font-size="12" font-weight="bold" lengthAdjust="spacingAndGlyphs" textLength="53">[System]</text><rect style="stroke:#444;stroke-width:1;stroke-dasharray:7,7" width="236" height="528" x="354" y="348.199" fill="#FFF"/><text x="440.5" y="365.668" fill="#444" font-family="sans-serif" font-size="16" font-weight="bold" lengthAdjust="spacingAndGlyphs" textLength="63">Shard 1</text><rect style="stroke:#444;stroke-width:1;stroke-dasharray:7,7" width="228" height="528" x="61" y="348.199" fill="#FFF"/><text x="143.5" y="365.668" fill="#444" font-family="sans-serif" font-size="16" font-weight="bold" lengthAdjust="spacingAndGlyphs" textLength="63">Shard 2</text><rect style="stroke:#444;stroke-width:1;stroke-dasharray:7,7" width="236" height="528" x="670" y="348.199" fill="#FFF"/><text x="756" y="365.668" fill="#444" font-family="sans-serif" font-size="16" font-weight="bold" lengthAdjust="spacingAndGlyphs" textLength="64">Shard N</text><path fill="#1168BD" d="M366,764.1992 C366,754.1992 472,754.1992 472,754.1992 C472,754.1992 578,754.1992 578,764.1992 L578,857.9961 C578,867.9961 472,867.9961 472,867.9961 C472,867.9961 366,867.9961 366,857.9961 L366,764.1992" style="stroke:#3c7fc0;stroke-width:1.5"/><path fill="none" d="M366,764.1992 C366,774.1992 472,774.1992 472,774.1992 C472,774.1992 578,774.1992 578,764.1992" style="stroke:#3c7fc0;stroke-width:1.5"/><text x="430.5" y="793.668" fill="#FFF" font-family="sans-serif" font-size="16" font-weight="bold" lengthAdjust="spacingAndGlyphs" textLength="83">Boot Node</text><text x="384.5" y="827.066" fill="#FFF" font-family="sans-serif" font-size="14" lengthAdjust="spacingAndGlyphs" textLength="171">Core Node (higher mass)</text><text x="377.5" y="843.555" fill="#FFF" font-family="sans-serif" font-size="14" lengthAdjust="spacingAndGlyphs" textLength="185">hosted by Radix DLT. Static</text><text x="376" y="860.043" fill="#FFF" font-family="sans-serif" font-size="14" lengthAdjust="spacingAndGlyphs" textLength="192">entrypoint into the network.</text><path fill="#999" d="M362,387.1992 C362,377.1992 472,377.1992 472,377.1992 C472,377.1992 582,377.1992 582,387.1992 L582,480.9961 C582,490.9961 472,490.9961 472,490.9961 C472,490.9961 362,490.9961 362,480.9961 L362,387.1992" style="stroke:#8a8a8a;stroke-width:1.5"/><path fill="none" d="M362,387.1992 C362,397.1992 472,397.1992 472,397.1992 C472,397.1992 582,397.1992 582,387.1992" style="stroke:#8a8a8a;stroke-width:1.5"/><text x="430" y="416.668" fill="#FFF" font-family="sans-serif" font-size="16" font-weight="bold" lengthAdjust="spacingAndGlyphs" textLength="84">Core Node</text><text x="398" y="450.066" fill="#FFF" font-family="sans-serif" font-size="14" lengthAdjust="spacingAndGlyphs" textLength="144">Core Node hosted by</text><text x="372" y="466.555" fill="#FFF" font-family="sans-serif" font-size="14" lengthAdjust="spacingAndGlyphs" textLength="196">external node-runner. Static</text><text x="376" y="483.043" fill="#FFF" font-family="sans-serif" font-size="14" lengthAdjust="spacingAndGlyphs" textLength="192">entrypoint into the network.</text><path fill="#1168BD" d="M69,764.1992 C69,754.1992 175,754.1992 175,754.1992 C175,754.1992 281,754.1992 281,764.1992 L281,857.9961 C281,867.9961 175,867.9961 175,867.9961 C175,867.9961 69,867.9961 69,857.9961 L69,764.1992" style="stroke:#3c7fc0;stroke-width:1.5"/><path fill="none" d="M69,764.1992 C69,774.1992 175,774.1992 175,774.1992 C175,774.1992 281,774.1992 281,764.1992" style="stroke:#3c7fc0;stroke-width:1.5"/><text x="133.5" y="793.668" fill="#FFF" font-family="sans-serif" font-size="16" font-weight="bold" lengthAdjust="spacingAndGlyphs" textLength="83">Boot Node</text><text x="87.5" y="827.066" fill="#FFF" font-family="sans-serif" font-size="14" lengthAdjust="spacingAndGlyphs" textLength="171">Core Node (higher mass)</text><text x="80.5" y="843.555" fill="#FFF" font-family="sans-serif" font-size="14" lengthAdjust="spacingAndGlyphs" textLength="185">hosted by Radix DLT. Static</text><text x="79" y="860.043" fill="#FFF" font-family="sans-serif" font-size="14" lengthAdjust="spacingAndGlyphs" textLength="192">entrypoint into the network.</text><path fill="#1168BD" d="M69,387.1992 C69,377.1992 175,377.1992 175,377.1992 C175,377.1992 281,377.1992 281,387.1992 L281,480.9961 C281,490.9961 175,490.9961 175,490.9961 C175,490.9961 69,490.9961 69,480.9961 L69,387.1992" style="stroke:#3c7fc0;stroke-width:1.5"/><path fill="none" d="M69,387.1992 C69,397.1992 175,397.1992 175,397.1992 C175,397.1992 281,397.1992 281,387.1992" style="stroke:#3c7fc0;stroke-width:1.5"/><text x="133.5" y="416.668" fill="#FFF" font-family="sans-serif" font-size="16" font-weight="bold" lengthAdjust="spacingAndGlyphs" textLength="83">Boot Node</text><text x="87.5" y="450.066" fill="#FFF" font-family="sans-serif" font-size="14" lengthAdjust="spacingAndGlyphs" textLength="171">Core Node (higher mass)</text><text x="80.5" y="466.555" fill="#FFF" font-family="sans-serif" font-size="14" lengthAdjust="spacingAndGlyphs" textLength="185">hosted by Radix DLT. Static</text><text x="79" y="483.043" fill="#FFF" font-family="sans-serif" font-size="14" lengthAdjust="spacingAndGlyphs" textLength="192">entrypoint into the network.</text><path fill="#999" d="M678,764.1992 C678,754.1992 788,754.1992 788,754.1992 C788,754.1992 898,754.1992 898,764.1992 L898,857.9961 C898,867.9961 788,867.9961 788,867.9961 C788,867.9961 678,867.9961 678,857.9961 L678,764.1992" style="stroke:#8a8a8a;stroke-width:1.5"/><path fill="none" d="M678,764.1992 C678,774.1992 788,774.1992 788,774.1992 C788,774.1992 898,774.1992 898,764.1992" style="stroke:#8a8a8a;stroke-width:1.5"/><text x="746" y="793.668" fill="#FFF" font-family="sans-serif" font-size="16" font-weight="bold" lengthAdjust="spacingAndGlyphs" textLength="84">Core Node</text><text x="714" y="827.066" fill="#FFF" font-family="sans-serif" font-size="14" lengthAdjust="spacingAndGlyphs" textLength="144">Core Node hosted by</text><text x="688" y="843.555" fill="#FFF" font-family="sans-serif" font-size="14" lengthAdjust="spacingAndGlyphs" textLength="196">external node-runner. Static</text><text x="692" y="860.043" fill="#FFF" font-family="sans-serif" font-size="14" lengthAdjust="spacingAndGlyphs" textLength="192">entrypoint into the network.</text><path fill="#999" d="M678,387.1992 C678,377.1992 788,377.1992 788,377.1992 C788,377.1992 898,377.1992 898,387.1992 L898,480.9961 C898,490.9961 788,490.9961 788,490.9961 C788,490.9961 678,490.9961 678,480.9961 L678,387.1992" style="stroke:#8a8a8a;stroke-width:1.5"/><path fill="none" d="M678,387.1992 C678,397.1992 788,397.1992 788,397.1992 C788,397.1992 898,397.1992 898,387.1992" style="stroke:#8a8a8a;stroke-width:1.5"/><text x="746" y="416.668" fill="#FFF" font-family="sans-serif" font-size="16" font-weight="bold" lengthAdjust="spacingAndGlyphs" textLength="84">Core Node</text><text x="714" y="450.066" fill="#FFF" font-family="sans-serif" font-size="14" lengthAdjust="spacingAndGlyphs" textLength="144">Core Node hosted by</text><text x="688" y="466.555" fill="#FFF" font-family="sans-serif" font-size="14" lengthAdjust="spacingAndGlyphs" textLength="196">external node-runner. Static</text><text x="692" y="483.043" fill="#FFF" font-family="sans-serif" font-size="14" lengthAdjust="spacingAndGlyphs" textLength="192">entrypoint into the network.</text><rect style="stroke:#8a8a8a;stroke-width:1.5" width="183" height="38.844" x="696.5" y="29.199" fill="#686868"/><text x="706.5" y="54.668" fill="#FFF" font-family="sans-serif" font-size="16" font-weight="bold" lengthAdjust="spacingAndGlyphs" textLength="163">Desktop Wallet User</text><rect style="stroke:#8a8a8a;stroke-width:1.5" width="209" height="88.309" x="683.5" y="153.699" fill="#999"/><text x="727.5" y="179.168" fill="#FFF" font-family="sans-serif" font-size="16" font-weight="bold" lengthAdjust="spacingAndGlyphs" textLength="121">Desktop Wallet</text><a target="_top" xlink:actuate="onRequest" xlink:href="https://github.com/radixdlt/RadixWallet" xlink:show="new" xlink:title="https://github.com/radixdlt/RadixWallet" xlink:type="simple"><text x="694.5" y="212.566" fill="#00F" font-family="sans-serif" font-size="14" lengthAdjust="spacingAndGlyphs" text-decoration="underline" textLength="101">Desktop Wallet</text><line style="stroke:#00f;stroke-width:1" x1="694.5" x2="795.5" y1="214.566" y2="214.566"/></a><text x="799.5" y="212.566" fill="#FFF" font-family="sans-serif" font-size="14" lengthAdjust="spacingAndGlyphs" textLength="78">Application</text><text x="693.5" y="229.055" fill="#FFF" font-family="sans-serif" font-size="14" lengthAdjust="spacingAndGlyphs" textLength="64">using the</text><a target="_top" xlink:actuate="onRequest" xlink:href="https://github.com/radixdlt/radixdlt-js" xlink:show="new" xlink:title="https://github.com/radixdlt/radixdlt-js" xlink:type="simple"><text x="761.5" y="229.055" fill="#00F" font-family="sans-serif" font-size="14" lengthAdjust="spacingAndGlyphs" text-decoration="underline" textLength="73">radixdlt-js</text><line style="stroke:#00f;stroke-width:1" x1="761.5" x2="834.5" y1="231.055" y2="231.055"/></a><text x="838.5" y="229.055" fill="#FFF" font-family="sans-serif" font-size="14" lengthAdjust="spacingAndGlyphs" textLength="44">library</text><rect style="stroke:#8a8a8a;stroke-width:1.5" width="182" height="38.844" x="84" y="29.199" fill="#686868"/><text x="94" y="54.668" fill="#FFF" font-family="sans-serif" font-size="16" font-weight="bold" lengthAdjust="spacingAndGlyphs" textLength="162">Android Wallet User</text><rect style="stroke:#8a8a8a;stroke-width:1.5" width="207" height="104.797" x="71.5" y="145.199" fill="#999"/><text x="115" y="170.668" fill="#FFF" font-family="sans-serif" font-size="16" font-weight="bold" lengthAdjust="spacingAndGlyphs" textLength="120">Android Wallet</text><a target="_top" xlink:actuate="onRequest" xlink:href="https://github.com/radixdlt/radixdlt-wallet-android" xlink:show="new" xlink:title="https://github.com/radixdlt/radixdlt-wallet-android" xlink:type="simple"><text x="81.5" y="204.066" fill="#00F" font-family="sans-serif" font-size="14" lengthAdjust="spacingAndGlyphs" text-decoration="underline" textLength="101">Android Wallet</text><line style="stroke:#00f;stroke-width:1" x1="81.5" x2="182.5" y1="206.066" y2="206.066"/></a><text x="186.5" y="204.066" fill="#FFF" font-family="sans-serif" font-size="14" lengthAdjust="spacingAndGlyphs" textLength="78">Application</text><text x="88.5" y="220.555" fill="#FFF" font-family="sans-serif" font-size="14" lengthAdjust="spacingAndGlyphs" textLength="64">using the</text><a target="_top" xlink:actuate="onRequest" xlink:href="https://github.com/radixdlt/radixdlt-kotlin" xlink:show="new" xlink:title="https://github.com/radixdlt/radixdlt-kotlin" xlink:type="simple"><text x="156.5" y="220.555" fill="#00F" font-family="sans-serif" font-size="14" lengthAdjust="spacingAndGlyphs" text-decoration="underline" textLength="101">radixdlt-kotlin</text><line style="stroke:#00f;stroke-width:1" x1="156.5" x2="257.5" y1="222.555" y2="222.555"/></a><text x="153" y="237.043" fill="#FFF" font-family="sans-serif" font-size="14" lengthAdjust="spacingAndGlyphs" textLength="44">library</text><rect style="stroke:#8a8a8a;stroke-width:1.5" width="142" height="38.844" x="401" y="29.199" fill="#686868"/><text x="411" y="54.668" fill="#FFF" font-family="sans-serif" font-size="16" font-weight="bold" lengthAdjust="spacingAndGlyphs" textLength="122">iOS Wallet User</text><rect style="stroke:#8a8a8a;stroke-width:1.5" width="212" height="104.797" x="366" y="145.199" fill="#999"/><text x="432" y="170.668" fill="#FFF" font-family="sans-serif" font-size="16" font-weight="bold" lengthAdjust="spacingAndGlyphs" textLength="80">iOS Wallet</text><text x="376" y="204.066" fill="#FFF" font-family="sans-serif" font-size="14" lengthAdjust="spacingAndGlyphs" textLength="188">iOS Wallet (WIP) Application</text><text x="389" y="220.555" fill="#FFF" font-family="sans-serif" font-size="14" lengthAdjust="spacingAndGlyphs" textLength="64">using the</text><a target="_top" xlink:actuate="onRequest" xlink:href="https://github.com/radixdlt/radixdlt-swift" xlink:show="new" xlink:title="https://github.com/radixdlt/radixdlt-swift" xlink:type="simple"><text x="457" y="220.555" fill="#00F" font-family="sans-serif" font-size="14" lengthAdjust="spacingAndGlyphs" text-decoration="underline" textLength="94">radixdlt-swift</text><line style="stroke:#00f;stroke-width:1" x1="457" x2="551" y1="222.555" y2="222.555"/></a><text x="450" y="237.043" fill="#FFF" font-family="sans-serif" font-size="14" lengthAdjust="spacingAndGlyphs" textLength="44">library</text><rect style="stroke:#8a8a8a;stroke-width:1.5" width="200" height="107.152" x="13" y="945.199" fill="#999"/><text x="33.5" y="970.668" fill="#FFF" font-family="sans-serif" font-size="16" font-weight="bold" lengthAdjust="spacingAndGlyphs" textLength="154">Asset Backet Toket</text><text x="79" y="989.512" fill="#FFF" font-family="sans-serif" font-size="16" font-weight="bold" lengthAdjust="spacingAndGlyphs" textLength="68">Provider</text><text x="23" y="1022.91" fill="#FFF" font-family="sans-serif" font-size="14" lengthAdjust="spacingAndGlyphs" textLength="176">Java Application based on</text><text x="32" y="1039.398" fill="#FFF" font-family="sans-serif" font-size="14" lengthAdjust="spacingAndGlyphs" textLength="22">the</text><a target="_top" xlink:actuate="onRequest" xlink:href="https://github.com/radixdlt/radixdlt-abt" xlink:show="new" xlink:title="https://github.com/radixdlt/radixdlt-abt" xlink:type="simple"><text x="58" y="1039.398" fill="#00F" font-family="sans-serif" font-size="14" lengthAdjust="spacingAndGlyphs" text-decoration="underline" textLength="84">radixdlt-abt</text><line style="stroke:#00f;stroke-width:1" x1="58" x2="142" y1="1041.398" y2="1041.398"/></a><text x="146" y="1039.398" fill="#FFF" font-family="sans-serif" font-size="14" lengthAdjust="spacingAndGlyphs" textLength="48">Service</text><rect style="stroke:#8a8a8a;stroke-width:1.5" width="214" height="88.309" x="6" y="1129.199" fill="#999"/><text x="46.5" y="1154.668" fill="#FFF" font-family="sans-serif" font-size="16" font-weight="bold" lengthAdjust="spacingAndGlyphs" textLength="133">Asset Custodian</text><text x="16" y="1188.066" fill="#FFF" font-family="sans-serif" font-size="14" lengthAdjust="spacingAndGlyphs" textLength="190">Third-party asset custodian</text><text x="56" y="1204.555" fill="#FFF" font-family="sans-serif" font-size="14" lengthAdjust="spacingAndGlyphs" textLength="30">(e.g.</text><a target="_top" xlink:actuate="onRequest" xlink:href="https://primetrust.com/" xlink:show="new" xlink:title="https://primetrust.com/" xlink:type="simple"><text x="90" y="1204.555" fill="#00F" font-family="sans-serif" font-size="14" lengthAdjust="spacingAndGlyphs" text-decoration="underline" textLength="75">PrimeTrust</text><line style="stroke:#00f;stroke-width:1" x1="90" x2="165" y1="1206.555" y2="1206.555"/></a><text x="165" y="1204.555" fill="#FFF" font-family="sans-serif" font-size="14" lengthAdjust="spacingAndGlyphs" textLength="5">)</text><rect style="stroke:#8a8a8a;stroke-width:1.5" width="190" height="104.797" x="754" y="946.199" fill="#999"/><text x="778.5" y="971.668" fill="#FFF" font-family="sans-serif" font-size="16" font-weight="bold" lengthAdjust="spacingAndGlyphs" textLength="141">Custom Java App</text><text x="764" y="1005.066" fill="#FFF" font-family="sans-serif" font-size="14" lengthAdjust="spacingAndGlyphs" textLength="166">Custom Java Application</text><text x="768.5" y="1021.555" fill="#FFF" font-family="sans-serif" font-size="14" lengthAdjust="spacingAndGlyphs" textLength="64">using the</text><a target="_top" xlink:actuate="onRequest" xlink:href="https://github.com/radixdlt/radixdlt-java" xlink:show="new" xlink:title="https://github.com/radixdlt/radixdlt-java" xlink:type="simple"><text x="836.5" y="1021.555" fill="#00F" font-family="sans-serif" font-size="14" lengthAdjust="spacingAndGlyphs" text-decoration="underline" textLength="89">radixdlt-java</text><line style="stroke:#00f;stroke-width:1" x1="836.5" x2="925.5" y1="1023.555" y2="1023.555"/></a><text x="827" y="1038.043" fill="#FFF" font-family="sans-serif" font-size="14" lengthAdjust="spacingAndGlyphs" textLength="44">library</text><rect style="stroke:#8a8a8a;stroke-width:1.5" width="230" height="104.797" x="248" y="946.199" fill="#999"/><text x="274" y="971.668" fill="#FFF" font-family="sans-serif" font-size="16" font-weight="bold" lengthAdjust="spacingAndGlyphs" textLength="178">In-Browser Javascript</text><text x="294" y="1005.066" fill="#FFF" font-family="sans-serif" font-size="14" lengthAdjust="spacingAndGlyphs" textLength="134">Custom In-browser</text><text x="258" y="1021.555" fill="#FFF" font-family="sans-serif" font-size="14" lengthAdjust="spacingAndGlyphs" textLength="133">Javascript using the</text><a target="_top" xlink:actuate="onRequest" xlink:href="https://github.com/radixdlt/radixdlt-js" xlink:show="new" xlink:title="https://github.com/radixdlt/radixdlt-js" xlink:type="simple"><text x="395" y="1021.555" fill="#00F" font-family="sans-serif" font-size="14" lengthAdjust="spacingAndGlyphs" text-decoration="underline" textLength="73">radixdlt-js</text><line style="stroke:#00f;stroke-width:1" x1="395" x2="468" y1="1023.555" y2="1023.555"/></a><text x="343" y="1038.043" fill="#FFF" font-family="sans-serif" font-size="14" lengthAdjust="spacingAndGlyphs" textLength="44">library</text><rect style="stroke:#8a8a8a;stroke-width:1.5" width="206" height="104.797" x="513" y="946.199" fill="#999"/><text x="523" y="971.668" fill="#FFF" font-family="sans-serif" font-size="16" font-weight="bold" lengthAdjust="spacingAndGlyphs" textLength="186">WebSocket Application</text><text x="525.5" y="1005.066" fill="#FFF" font-family="sans-serif" font-size="14" lengthAdjust="spacingAndGlyphs" textLength="177">Custom Application using</text><text x="538" y="1021.555" fill="#FFF" font-family="sans-serif" font-size="14" lengthAdjust="spacingAndGlyphs" textLength="152">the the WebSocket API</text><text x="591" y="1038.043" fill="#FFF" font-family="sans-serif" font-size="14" lengthAdjust="spacingAndGlyphs" textLength="50">directly</text><path id="pers_ext1-desk_wallet1" fill="none" d="M788,68.4852 C788,88.8302 788,121.3077 788,148.6115" style="stroke:#666;stroke-width:1"/><polygon fill="#666" points="788 153.645 792 144.645 788 148.645 784 144.645 788 153.645" style="stroke:#666;stroke-width:1"/><text x="789" y="111.768" fill="#666" font-family="sans-serif" font-size="13" font-weight="bold" lengthAdjust="spacingAndGlyphs" textLength="24">use</text><path id="pers_ext2-android_wallet1" fill="none" d="M175,68.4852 C175,86.742 175,114.7686 175,140.0593" style="stroke:#666;stroke-width:1"/><polygon fill="#666" points="175 145.077 179 136.077 175 140.077 171 136.077 175 145.077" style="stroke:#666;stroke-width:1"/><text x="176" y="111.768" fill="#666" font-family="sans-serif" font-size="13" font-weight="bold" lengthAdjust="spacingAndGlyphs" textLength="24">use</text><path id="pers_ext3-ios_wallet1" fill="none" d="M472,68.4852 C472,86.742 472,114.7686 472,140.0593" style="stroke:#666;stroke-width:1"/><polygon fill="#666" points="472 145.077 476 136.077 472 140.077 468 136.077 472 145.077" style="stroke:#666;stroke-width:1"/><text x="473" y="111.768" fill="#666" font-family="sans-serif" font-size="13" font-weight="bold" lengthAdjust="spacingAndGlyphs" textLength="24">use</text><path id="core_node1-boot_node1" fill="none" d="M472,496.5207 C472,514.6382 472,534.4584 472,552.6992 C472,552.6992 472,552.6992 472,692.6992 C472,710.94 472,730.7602 472,748.8777" style="stroke:#666;stroke-width:1"/><polygon fill="#666" points="472 753.94 476 744.94 472 748.94 468 744.94 472 753.94" style="stroke:#666;stroke-width:1"/><polygon fill="#666" points="472 491.459 468 500.459 472 496.459 476 500.459 472 491.459" style="stroke:#666;stroke-width:1"/><text x="473" y="627.768" fill="#666" font-family="sans-serif" font-size="13" font-weight="bold" lengthAdjust="spacingAndGlyphs" textLength="31">sync</text><path id="boot_noden-boot_node2" fill="none" d="M175,496.5207 C175,514.6382 175,534.4584 175,552.6992 C175,552.6992 175,552.6992 175,692.6992 C175,710.94 175,730.7602 175,748.8777" style="stroke:#666;stroke-width:1"/><polygon fill="#666" points="175 753.94 179 744.94 175 748.94 171 744.94 175 753.94" style="stroke:#666;stroke-width:1"/><polygon fill="#666" points="175 491.459 171 500.459 175 496.459 179 500.459 175 491.459" style="stroke:#666;stroke-width:1"/><text x="176" y="627.768" fill="#666" font-family="sans-serif" font-size="13" font-weight="bold" lengthAdjust="spacingAndGlyphs" textLength="31">sync</text><path id="core_noden-core_node2" fill="none" d="M845.9786,495.5273 C856.912,512.7346 865,532.3431 865,552.6992 C865,552.6992 865,552.6992 865,692.6992 C865,713.0553 856.912,732.6638 845.9786,749.8711" style="stroke:#666;stroke-width:1"/><polygon fill="#666" points="843.141 754.193 851.424 748.865 845.885 750.014 844.737 744.474 843.141 754.193" style="stroke:#666;stroke-width:1"/><polygon fill="#666" points="843.141 491.205 844.737 500.924 845.885 495.385 851.424 496.533 843.141 491.205" style="stroke:#666;stroke-width:1"/><text x="866" y="627.768" fill="#666" font-family="sans-serif" font-size="13" font-weight="bold" lengthAdjust="spacingAndGlyphs" textLength="31">sync</text><path id="core_noden-boot_node2" fill="none" d="M673.7434,483.0122 C650.5019,500.6242 633,523.5605 633,552.6992 C633,552.6992 633,552.6992 633,692.6992 C633,757.9248 408.9244,737.0265 346,754.1992 C324.8675,759.9665 302.5065,766.8415 281.1688,773.7874" style="stroke:#666;stroke-width:1"/><polygon fill="#666" points="677.832 480.009 668.211 482.113 673.803 482.969 672.947 488.56 677.832 480.009" style="stroke:#666;stroke-width:1"/><text x="634" y="627.768" fill="#666" font-family="sans-serif" font-size="13" font-weight="bold" lengthAdjust="spacingAndGlyphs" textLength="44">gossip</text><path id="core_noden-core_node1" fill="none" d="M677.7818,434.1992 C648.4762,434.1992 616.7496,434.1992 587.1861,434.1992" style="stroke:#666;stroke-width:1"/><polygon fill="#666" points="582.078 434.199 591.078 438.199 587.078 434.199 591.078 430.199 582.078 434.199" style="stroke:#666;stroke-width:1"/><text x="608" y="427.768" fill="#666" font-family="sans-serif" font-size="13" font-weight="bold" lengthAdjust="spacingAndGlyphs" textLength="44">gossip</text><path id="core_noden-boot_node1" fill="none" d="M761.1261,491.4403 C754.3707,510.5003 749,532.1237 749,552.6992 C749,552.6992 749,552.6992 749,692.6992 C749,711.6366 660.3541,747.0706 583.357,774.2764" style="stroke:#666;stroke-width:1"/><polygon fill="#666" points="578.303 776.056 588.121 776.839 583.019 774.395 585.463 769.294 578.303 776.056" style="stroke:#666;stroke-width:1"/><text x="750" y="627.768" fill="#666" font-family="sans-serif" font-size="13" font-weight="bold" lengthAdjust="spacingAndGlyphs" textLength="44">gossip</text><path id="boot_node1-boot_node2" fill="none" d="M365.859,811.1992 C340.1233,811.1992 312.5354,811.1992 286.5579,811.1992" style="stroke:#666;stroke-width:1"/><polygon fill="#666" points="281.385 811.199 290.385 815.199 286.385 811.199 290.385 807.199 281.385 811.199" style="stroke:#666;stroke-width:1"/><text x="301.5" y="804.768" fill="#666" font-family="sans-serif" font-size="13" font-weight="bold" lengthAdjust="spacingAndGlyphs" textLength="44">gossip</text><path id="boot_noden-core_node1" fill="none" d="M281.3849,434.1992 C305.7818,434.1992 331.832,434.1992 356.5894,434.1992" style="stroke:#666;stroke-width:1"/><polygon fill="#666" points="361.852 434.199 352.852 430.199 356.852 434.199 352.852 438.199 361.852 434.199" style="stroke:#666;stroke-width:1"/><text x="299.5" y="427.768" fill="#666" font-family="sans-serif" font-size="13" font-weight="bold" lengthAdjust="spacingAndGlyphs" textLength="44">gossip</text><path id="desk_wallet1-core_noden" fill="none" d="M788,241.9056 C788,278.3714 788,330.5565 788,371.3641" style="stroke:#666;stroke-width:1"/><polygon fill="#666" points="788 376.789 792 367.789 788 371.789 784 367.789 788 376.789" style="stroke:#666;stroke-width:1"/><text x="789" y="293.768" fill="#666" font-family="sans-serif" font-size="13" font-weight="bold" lengthAdjust="spacingAndGlyphs" textLength="72">WebSocket</text><path id="android_wallet1-boot_noden" fill="none" d="M175,250.4801 C175,286.4393 175,334.1931 175,372.0012" style="stroke:#666;stroke-width:1"/><polygon fill="#666" points="175 377.032 179 368.032 175 372.032 171 368.032 175 377.032" style="stroke:#666;stroke-width:1"/><text x="176" y="293.768" fill="#666" font-family="sans-serif" font-size="13" font-weight="bold" lengthAdjust="spacingAndGlyphs" textLength="72">WebSocket</text><path id="ios_wallet1-core_node1" fill="none" d="M472,250.4801 C472,286.4393 472,334.1931 472,372.0012" style="stroke:#666;stroke-width:1"/><polygon fill="#666" points="472 377.032 476 368.032 472 372.032 468 368.032 472 377.032" style="stroke:#666;stroke-width:1"/><text x="473" y="293.768" fill="#666" font-family="sans-serif" font-size="13" font-weight="bold" lengthAdjust="spacingAndGlyphs" textLength="72">WebSocket</text><path id="boot_node2-abt1" fill="none" d="M154.5178,873.1414 C146.8165,896.4315 138.1328,922.6928 130.7053,945.155" style="stroke:#666;stroke-width:1"/><polygon fill="#666" points="156.145 868.219 149.522 875.508 154.576 872.966 157.117 878.02 156.145 868.219" style="stroke:#666;stroke-width:1"/><text x="147" y="911.768" fill="#666" font-family="sans-serif" font-size="13" font-weight="bold" lengthAdjust="spacingAndGlyphs" textLength="72">WebSocket</text><path id="abt1-asset_custodian1" fill="none" d="M113,1052.4788 C113,1075.1925 113,1101.4731 113,1123.7029" style="stroke:#666;stroke-width:1"/><polygon fill="#666" points="113 1128.967 117 1119.967 113 1123.967 109 1119.967 113 1128.967" style="stroke:#666;stroke-width:1"/><text x="114" y="1095.768" fill="#666" font-family="sans-serif" font-size="13" font-weight="bold" lengthAdjust="spacingAndGlyphs" textLength="24">use</text><path id="core_node2-java_app1" fill="none" d="M808.1732,873.2071 C815.8522,896.8106 824.5215,923.4579 831.8899,946.1066" style="stroke:#666;stroke-width:1"/><polygon fill="#666" points="806.551 868.219 805.531 878.015 808.097 872.974 813.139 875.54 806.551 868.219" style="stroke:#666;stroke-width:1"/><text x="821" y="911.768" fill="#666" font-family="sans-serif" font-size="13" font-weight="bold" lengthAdjust="spacingAndGlyphs" textLength="72">WebSocket</text><path id="boot_node1-js_app1" fill="none" d="M436.2969,872.6152 C422.4907,896.3643 406.8505,923.2684 393.5738,946.1066" style="stroke:#666;stroke-width:1"/><polygon fill="#666" points="438.853 868.219 430.871 873.989 436.339 872.542 437.787 878.01 438.853 868.219" style="stroke:#666;stroke-width:1"/><text x="421" y="911.768" fill="#666" font-family="sans-serif" font-size="13" font-weight="bold" lengthAdjust="spacingAndGlyphs" textLength="72">WebSocket</text><path id="boot_node1-ws_app1" fill="none" d="M518.9405,872.3197 C537.2353,896.141 557.9963,923.1736 575.6089,946.1066" style="stroke:#666;stroke-width:1"/><polygon fill="#666" points="515.791 868.219 518.101 877.793 518.837 872.184 524.446 872.92 515.791 868.219" style="stroke:#666;stroke-width:1"/><text x="549" y="911.768" fill="#666" font-family="sans-serif" font-size="13" font-weight="bold" lengthAdjust="spacingAndGlyphs" textLength="72">WebSocket</text><rect style="stroke:#000;stroke-width:1" width="199" height="96.441" x="754" y="1235.199" fill="#DDD" rx="5" ry="5"/><text x="835" y="1255.734" fill="#000" font-family="sans-serif" font-size="14" font-weight="bold" lengthAdjust="spacingAndGlyphs" textLength="35">Type</text><rect style="stroke:none;stroke-width:1" width="70" height="16.488" x="760" y="1258.688" fill="#08427B"/><text x="834" y="1272.223" fill="#000" font-family="sans-serif" font-size="14" lengthAdjust="spacingAndGlyphs" textLength="48">person</text><rect style="stroke:none;stroke-width:1" width="70" height="16.488" x="760" y="1275.176" fill="#686868"/><text x="834" y="1288.711" fill="#000" font-family="sans-serif" font-size="14" lengthAdjust="spacingAndGlyphs" textLength="109">external person</text><rect style="stroke:none;stroke-width:1" width="70" height="16.488" x="760" y="1291.664" fill="#1168BD"/><text x="834" y="1305.199" fill="#000" font-family="sans-serif" font-size="14" lengthAdjust="spacingAndGlyphs" textLength="47">system</text><rect style="stroke:none;stroke-width:1" width="70" height="16.488" x="760" y="1308.152" fill="#999"/><text x="834" y="1321.688" fill="#000" font-family="sans-serif" font-size="14" lengthAdjust="spacingAndGlyphs" textLength="108">external system</text><line style="stroke:#000;stroke-width:1" x1="760" x2="947" y1="1242.199" y2="1242.199"/><line style="stroke:#000;stroke-width:1" x1="760" x2="947" y1="1258.688" y2="1258.688"/><line style="stroke:#000;stroke-width:1" x1="760" x2="947" y1="1275.176" y2="1275.176"/><line style="stroke:#000;stroke-width:1" x1="760" x2="947" y1="1291.664" y2="1291.664"/><line style="stroke:#000;stroke-width:1" x1="760" x2="947" y1="1308.152" y2="1308.152"/><line style="stroke:#000;stroke-width:1" x1="760" x2="947" y1="1324.641" y2="1324.641"/><line style="stroke:#000;stroke-width:1" x1="760" x2="760" y1="1242.199" y2="1324.641"/><line style="stroke:#000;stroke-width:1" x1="830" x2="830" y1="1242.199" y2="1324.641"/><line style="stroke:#000;stroke-width:1" x1="947" x2="947" y1="1242.199" y2="1324.641"/></g></svg>