<svg xmlns="http://www.w3.org/2000/svg" xmlns:xlink="http://www.w3.org/1999/xlink" width="1448" height="1700" contentScriptType="application/ecmascript" contentStyleType="text/css" style="width:1448px;height:1700px" preserveAspectRatio="none" version="1.1" viewBox="0 0 1448 1700" zoomAndPan="magnify"><g><rect style="stroke:#444;stroke-width:1;stroke-dasharray:7,7" width="152" height="130" x="1246" y="996.5" fill="#FFF"/><text x="1290.5" y="1013.969" fill="#444" font-family="sans-serif" font-size="16" font-weight="bold" lengthAdjust="spacingAndGlyphs" textLength="63">Shard 2</text><rect style="stroke:#444;stroke-width:1;stroke-dasharray:7,7" width="1011" height="1365.5" x="14" y="185.5" fill="#FFF"/><text x="488" y="202.969" fill="#444" font-family="sans-serif" font-size="16" font-weight="bold" lengthAdjust="spacingAndGlyphs" textLength="63">Shard 1</text><rect style="stroke:#444;stroke-width:1;stroke-dasharray:7,7" width="451" height="1328.5" x="294" y="214.5" fill="#FFF"/><text x="477.5" y="231.969" fill="#444" font-family="sans-serif" font-size="16" font-weight="bold" lengthAdjust="spacingAndGlyphs" textLength="84">Core Node</text><text x="493" y="246.945" fill="#444" font-family="sans-serif" font-size="12" font-weight="bold" lengthAdjust="spacingAndGlyphs" textLength="53">[System]</text><rect style="stroke:#8a8a8a;stroke-width:1.5" width="136" height="71.82" x="1254" y="1046.5" fill="#999"/><text x="1272" y="1071.969" fill="#FFF" font-family="sans-serif" font-size="16" font-weight="bold" lengthAdjust="spacingAndGlyphs" textLength="100">Core Node 3</text><text x="1264" y="1105.367" fill="#FFF" font-family="sans-serif" font-size="14" lengthAdjust="spacingAndGlyphs" textLength="116">Other Core Node</text><rect style="stroke:#8a8a8a;stroke-width:1.5" width="263" height="88.309" x="22.5" y="1196" fill="#999"/><text x="104" y="1221.469" fill="#FFF" font-family="sans-serif" font-size="16" font-weight="bold" lengthAdjust="spacingAndGlyphs" textLength="100">Core Node 1</text><text x="32.5" y="1254.867" fill="#FFF" font-family="sans-serif" font-size="14" lengthAdjust="spacingAndGlyphs" textLength="154">Other Core Node in an</text><text x="190.5" y="1254.867" fill="#FFF" font-family="sans-serif" font-size="14" font-weight="bold" lengthAdjust="spacingAndGlyphs" textLength="85">overlapping</text><text x="114.5" y="1271.355" fill="#FFF" font-family="sans-serif" font-size="14" lengthAdjust="spacingAndGlyphs" textLength="83">Shard space</text><rect style="stroke:#8a8a8a;stroke-width:1.5" width="263" height="88.309" x="753.5" y="1196" fill="#999"/><text x="835" y="1221.469" fill="#FFF" font-family="sans-serif" font-size="16" font-weight="bold" lengthAdjust="spacingAndGlyphs" textLength="100">Core Node 2</text><text x="763.5" y="1254.867" fill="#FFF" font-family="sans-serif" font-size="14" lengthAdjust="spacingAndGlyphs" textLength="154">Other Core Node in an</text><text x="921.5" y="1254.867" fill="#FFF" font-family="sans-serif" font-size="14" font-weight="bold" lengthAdjust="spacingAndGlyphs" textLength="85">overlapping</text><text x="845.5" y="1271.355" fill="#FFF" font-family="sans-serif" font-size="14" lengthAdjust="spacingAndGlyphs" textLength="83">Shard space</text><rect style="stroke:#3c7fc0;stroke-width:1.5" width="176" height="118.93" x="549" y="299.5" fill="#438DD5"/><text x="588.5" y="324.969" fill="#FFF" font-family="sans-serif" font-size="16" font-weight="bold" lengthAdjust="spacingAndGlyphs" textLength="97">Rate Limiter</text><text x="566" y="339.945" fill="#FFF" font-family="sans-serif" font-size="12" font-style="italic" lengthAdjust="spacingAndGlyphs" textLength="142">[Container: Linux Kernel]</text><text x="570.5" y="372.5" fill="#FFF" font-family="sans-serif" font-size="14" lengthAdjust="spacingAndGlyphs" textLength="129">DDoS mitigation of</text><text x="574.5" y="388.988" fill="#FFF" font-family="sans-serif" font-size="14" lengthAdjust="spacingAndGlyphs" textLength="121">Gossip/Sync from</text><text x="559" y="405.477" fill="#FFF" font-family="sans-serif" font-size="14" lengthAdjust="spacingAndGlyphs" textLength="156">malicious/faulty nodes</text><rect style="stroke:#3c7fc0;stroke-width:1.5" width="211" height="133.063" x="302.5" y="292.5" fill="#438DD5"/><text x="351.5" y="317.969" fill="#FFF" font-family="sans-serif" font-size="16" font-weight="bold" lengthAdjust="spacingAndGlyphs" textLength="113">Reverse Proxy</text><text x="319" y="332.945" fill="#FFF" font-family="sans-serif" font-size="12" font-style="italic" lengthAdjust="spacingAndGlyphs" textLength="174">[Container: NGINX/HAProxy in</text><text x="385.5" y="347.078" fill="#FFF" font-family="sans-serif" font-size="12" font-style="italic" lengthAdjust="spacingAndGlyphs" textLength="45">Docker]</text><text x="329.5" y="379.633" fill="#FFF" font-family="sans-serif" font-size="14" lengthAdjust="spacingAndGlyphs" textLength="153">TLS termination, DDoS</text><text x="315.5" y="396.121" fill="#FFF" font-family="sans-serif" font-size="14" lengthAdjust="spacingAndGlyphs" textLength="181">mitigation, authentication,</text><text x="312.5" y="412.609" fill="#FFF" font-family="sans-serif" font-size="14" lengthAdjust="spacingAndGlyphs" textLength="191">and filtering of API requests</text><rect style="stroke:#3c7fc0;stroke-width:1.5" width="218" height="135.418" x="512" y="777.5" fill="#438DD5"/><text x="580" y="802.969" fill="#FFF" font-family="sans-serif" font-size="16" font-weight="bold" lengthAdjust="spacingAndGlyphs" textLength="82">RadixCore</text><text x="544" y="817.945" fill="#FFF" font-family="sans-serif" font-size="12" font-style="italic" lengthAdjust="spacingAndGlyphs" textLength="154">[Container: Java in Docker]</text><text x="532.5" y="850.5" fill="#FFF" font-family="sans-serif" font-size="14" lengthAdjust="spacingAndGlyphs" textLength="173">Gossips and Syncs Atoms</text><text x="522" y="866.988" fill="#FFF" font-family="sans-serif" font-size="14" lengthAdjust="spacingAndGlyphs" textLength="194">with other Nodes and serves</text><text x="541.5" y="883.477" fill="#FFF" font-family="sans-serif" font-size="14" lengthAdjust="spacingAndGlyphs" textLength="155">light-clients in a Radix</text><text x="592.5" y="899.965" fill="#FFF" font-family="sans-serif" font-size="14" lengthAdjust="spacingAndGlyphs" textLength="57">Network</text><path fill="#438DD5" d="M517,1425.5 C517,1415.5 627,1415.5 627,1415.5 C627,1415.5 737,1415.5 737,1425.5 L737,1516.9414 C737,1526.9414 627,1526.9414 627,1526.9414 C627,1526.9414 517,1526.9414 517,1516.9414 L517,1425.5" style="stroke:#3c7fc0;stroke-width:1.5"/><path fill="none" d="M517,1425.5 C517,1435.5 627,1435.5 627,1435.5 C627,1435.5 737,1435.5 737,1425.5" style="stroke:#3c7fc0;stroke-width:1.5"/><text x="578" y="1454.969" fill="#FFF" font-family="sans-serif" font-size="16" font-weight="bold" lengthAdjust="spacingAndGlyphs" textLength="98">Ledger Data</text><text x="547.5" y="1469.945" fill="#FFF" font-family="sans-serif" font-size="12" font-style="italic" lengthAdjust="spacingAndGlyphs" textLength="159">[Container: Docker Volume]</text><text x="527" y="1502.5" fill="#FFF" font-family="sans-serif" font-size="14" lengthAdjust="spacingAndGlyphs" textLength="200">stores ledger data, metadata,</text><text x="546.5" y="1518.988" fill="#FFF" font-family="sans-serif" font-size="14" lengthAdjust="spacingAndGlyphs" textLength="161">index, and bloom filter.</text><path fill="#438DD5" d="M302.5,1417 C302.5,1407 392,1407 392,1407 C392,1407 481.5,1407 481.5,1417 L481.5,1524.9297 C481.5,1534.9297 392,1534.9297 392,1534.9297 C392,1534.9297 302.5,1534.9297 302.5,1524.9297 L302.5,1417" style="stroke:#3c7fc0;stroke-width:1.5"/><path fill="none" d="M302.5,1417 C302.5,1427 392,1427 392,1427 C392,1427 481.5,1427 481.5,1417" style="stroke:#3c7fc0;stroke-width:1.5"/><text x="363" y="1446.469" fill="#FFF" font-family="sans-serif" font-size="16" font-weight="bold" lengthAdjust="spacingAndGlyphs" textLength="58">Secrets</text><text x="312.5" y="1461.445" fill="#FFF" font-family="sans-serif" font-size="12" font-style="italic" lengthAdjust="spacingAndGlyphs" textLength="159">[Container: Docker Volume]</text><text x="330.5" y="1494" fill="#FFF" font-family="sans-serif" font-size="14" lengthAdjust="spacingAndGlyphs" textLength="119">stores node keys,</text><text x="323" y="1510.488" fill="#FFF" font-family="sans-serif" font-size="14" lengthAdjust="spacingAndGlyphs" textLength="134">certificates, and API</text><text x="353.5" y="1526.977" fill="#FFF" font-family="sans-serif" font-size="14" lengthAdjust="spacingAndGlyphs" textLength="77">passwords.</text><rect style="stroke:#8a8a8a;stroke-width:1.5" width="191" height="104.797" x="1033.5" y="306.5" fill="#999"/><text x="1059.5" y="331.969" fill="#FFF" font-family="sans-serif" font-size="16" font-weight="bold" lengthAdjust="spacingAndGlyphs" textLength="139">WebSocket Client</text><text x="1044" y="365.367" fill="#FFF" font-family="sans-serif" font-size="14" lengthAdjust="spacingAndGlyphs" textLength="166">Custom Application that</text><text x="1046.5" y="381.856" fill="#FFF" font-family="sans-serif" font-size="14" lengthAdjust="spacingAndGlyphs" textLength="161">uses the WebSocket API</text><text x="1043.5" y="398.344" fill="#FFF" font-family="sans-serif" font-size="14" lengthAdjust="spacingAndGlyphs" textLength="171">directly or indirectly (lib).</text><rect style="stroke:#8a8a8a;stroke-width:1.5" width="185" height="104.797" x="1033.5" y="1030" fill="#999"/><text x="1082" y="1055.469" fill="#FFF" font-family="sans-serif" font-size="16" font-weight="bold" lengthAdjust="spacingAndGlyphs" textLength="88">NTP Server</text><text x="1043.5" y="1088.867" fill="#FFF" font-family="sans-serif" font-size="14" lengthAdjust="spacingAndGlyphs" textLength="161">Standard Network Time</text><text x="1048" y="1105.355" fill="#FFF" font-family="sans-serif" font-size="14" lengthAdjust="spacingAndGlyphs" textLength="152">Protocol Server on the</text><text x="1097" y="1121.844" fill="#FFF" font-family="sans-serif" font-size="14" lengthAdjust="spacingAndGlyphs" textLength="58">internet.</text><path id="core-ntp1" fill="none" d="M730.1959,855.5452 C807.1854,867.1975 909.8998,891.5944 987,942.5 C1008.6648,956.8042 1005.3506,969.4613 1023,988.5 C1034.8848,1001.3204 1048.2601,1014.3873 1061.3394,1026.5417" style="stroke:#666;stroke-width:1"/><polygon fill="#666" points="1065.019 1029.945 1061.127 1020.897 1061.348 1026.55 1055.696 1026.771 1065.019 1029.945" style="stroke:#666;stroke-width:1"/><text x="1024" y="956.068" fill="#666" font-family="sans-serif" font-size="13" font-weight="bold" lengthAdjust="spacingAndGlyphs" textLength="121">periodically syncs</text><text x="1053.5" y="971.379" fill="#666" font-family="sans-serif" font-size="13" font-weight="bold" lengthAdjust="spacingAndGlyphs" textLength="66">time from</text><text x="1042.5" y="985.723" fill="#666" font-family="sans-serif" font-size="12" font-style="italic" lengthAdjust="spacingAndGlyphs" textLength="88">[NTP port 123]</text><path id="core-ledger" fill="none" d="M582.4774,912.5347 C578.253,922.3357 574.5614,932.498 572,942.5 C556.5541,1002.8156 567,1020.2381 567,1082.5 C567,1082.5 567,1082.5 567,1345.5 C567,1368.0644 574.9924,1390.8754 585.1432,1410.7472" style="stroke:#666;stroke-width:1"/><polygon fill="#666" points="587.481 1415.204 586.843 1405.376 585.158 1410.776 579.758 1409.092 587.481 1415.204" style="stroke:#666;stroke-width:1"/><text x="568" y="1237.568" fill="#666" font-family="sans-serif" font-size="13" font-weight="bold" lengthAdjust="spacingAndGlyphs" textLength="149">reads from and writes</text><text x="636" y="1252.879" fill="#666" font-family="sans-serif" font-size="13" font-weight="bold" lengthAdjust="spacingAndGlyphs" textLength="13">to</text><path id="core-secrets" fill="none" d="M516.4913,912.5841 C465.4991,954.4208 415,1013.3174 415,1082.5 C415,1082.5 415,1082.5 415,1345.5 C415,1363.9252 412.5718,1383.6264 409.2934,1401.8292" style="stroke:#666;stroke-width:1"/><polygon fill="#666" points="408.347 1406.921 413.924 1398.803 409.261 1402.005 406.059 1397.342 408.347 1406.921" style="stroke:#666;stroke-width:1"/><text x="416" y="1238.068" fill="#666" font-family="sans-serif" font-size="13" font-weight="bold" lengthAdjust="spacingAndGlyphs" textLength="74">reads from</text><text x="419.5" y="1252.412" fill="#666" font-family="sans-serif" font-size="12" font-style="italic" lengthAdjust="spacingAndGlyphs" textLength="67">[nodes.key]</text><path id="nginx-secrets" fill="none" d="M383.8593,425.5766 C371.9841,461.4811 358.7912,506.854 352,548.5 C322.1526,731.5356 337,780.0468 337,965.5 C337,965.5 337,965.5 337,1345.5 C337,1364.635 342.43,1384.1355 349.8777,1401.8827" style="stroke:#666;stroke-width:1"/><polygon fill="#666" points="352.029 1406.84 352.115 1396.992 350.038 1402.253 344.777 1400.176 352.029 1406.84" style="stroke:#666;stroke-width:1"/><text x="370" y="829.068" fill="#666" font-family="sans-serif" font-size="13" font-weight="bold" lengthAdjust="spacingAndGlyphs" textLength="74">reads from</text><text x="353.5" y="843.412" fill="#666" font-family="sans-serif" font-size="12" font-style="italic" lengthAdjust="spacingAndGlyphs" textLength="103">[htpasswd.admin,</text><text x="361.5" y="857.545" fill="#666" font-family="sans-serif" font-size="12" font-style="italic" lengthAdjust="spacingAndGlyphs" textLength="87">dhparam.pem,</text><text x="338" y="871.678" fill="#666" font-family="sans-serif" font-size="12" font-style="italic" lengthAdjust="spacingAndGlyphs" textLength="138">server.key, server.pem]</text><path id="nginx-core" fill="none" d="M398.6558,425.6349 C396.5889,445.3508 395,467.0088 395,487 C395,487 395,487 395,701 C395,715.8497 451.2124,751.7043 507.5681,783.9189" style="stroke:#666;stroke-width:1"/><polygon fill="#666" points="511.972 786.429 506.133 778.497 507.628 783.953 502.172 785.447 511.972 786.429" style="stroke:#666;stroke-width:1"/><text x="396" y="562.068" fill="#666" font-family="sans-serif" font-size="13" font-weight="bold" lengthAdjust="spacingAndGlyphs" textLength="135">proxies connections</text><text x="459" y="577.379" fill="#666" font-family="sans-serif" font-size="13" font-weight="bold" lengthAdjust="spacingAndGlyphs" textLength="13">to</text><text x="413.5" y="591.723" fill="#666" font-family="sans-serif" font-size="12" font-style="italic" lengthAdjust="spacingAndGlyphs" textLength="104">[HTTP port 8080]</text><path id="iptables-core" fill="none" d="M616.4088,418.5149 C610.683,439.8477 606,464.2497 606,487 C606,487 606,487 606,701 C606,724.2511 607.9585,749.5009 610.4602,772.2691" style="stroke:#666;stroke-width:1"/><polygon fill="#666" points="611.037 777.39 614.005 768 610.477 772.422 606.055 768.894 611.037 777.39" style="stroke:#666;stroke-width:1"/><text x="607" y="569.568" fill="#666" font-family="sans-serif" font-size="13" font-weight="bold" lengthAdjust="spacingAndGlyphs" textLength="129">rate limits traffic to</text><text x="619.5" y="583.912" fill="#666" font-family="sans-serif" font-size="12" font-style="italic" lengthAdjust="spacingAndGlyphs" textLength="104">[UDP port 10000]</text><path id="nginx-ws_app1" fill="none" d="M439.0917,287.7491 C459.6053,250.1286 490.4233,207.3364 532,185.5 C652.0161,122.4665 706.4161,146.1006 837,182.5 C923.1614,206.5169 1009.2706,263.6085 1065.4124,306.4011" style="stroke:#666;stroke-width:1"/><polygon fill="#666" points="436.641 292.31 444.425 286.275 439.008 287.905 437.378 282.488 436.641 292.31" style="stroke:#666;stroke-width:1"/><text x="712.5" y="145.068" fill="#666" font-family="sans-serif" font-size="13" font-weight="bold" lengthAdjust="spacingAndGlyphs" textLength="117">submits/recieves</text><text x="723.5" y="160.379" fill="#666" font-family="sans-serif" font-size="13" font-weight="bold" lengthAdjust="spacingAndGlyphs" textLength="99">Atoms to/from</text><text x="710" y="174.723" fill="#666" font-family="sans-serif" font-size="12" font-style="italic" lengthAdjust="spacingAndGlyphs" textLength="126">[WebSocket port 443]</text><path id="node3-iptables" fill="none" d="M1322,1046.2871 C1322,999.7162 1322,916.3325 1322,845 C1322,487 1322,487 1322,487 C1322,479.5613 917.3646,407.9463 730.0797,375.1978" style="stroke:#666;stroke-width:1"/><polygon fill="#666" points="725.149 374.336 733.326 379.826 730.075 375.197 734.704 371.945 725.149 374.336" style="stroke:#666;stroke-width:1"/><text x="1341" y="638.068" fill="#666" font-family="sans-serif" font-size="13" font-weight="bold" lengthAdjust="spacingAndGlyphs" textLength="68">gossips to</text><text x="1323" y="652.412" fill="#666" font-family="sans-serif" font-size="12" font-style="italic" lengthAdjust="spacingAndGlyphs" textLength="104">[UDP port 10000]</text><path id="core-node1" fill="none" d="M511.9512,900.2811 C502.8841,904.5238 493.8168,908.6489 485,912.5 C402.2485,948.645 366.0154,934.8864 300,996.5 C240.3609,1052.1624 196.8124,1137.6278 173.4765,1191.0957" style="stroke:#666;stroke-width:1"/><polygon fill="#666" points="171.419 1195.848 178.666 1189.178 173.406 1191.259 171.325 1185.999 171.419 1195.848" style="stroke:#666;stroke-width:1"/><text x="319" y="1080.568" fill="#666" font-family="sans-serif" font-size="13" font-weight="bold" lengthAdjust="spacingAndGlyphs" textLength="68">gossips to</text><text x="301" y="1094.912" fill="#666" font-family="sans-serif" font-size="12" font-style="italic" lengthAdjust="spacingAndGlyphs" textLength="104">[UDP port 10000]</text><path id="core-node3" fill="none" d="M730.2112,855.7595 C864.8048,870.5865 1084.2681,900.336 1154,942.5 C1176.2156,955.9329 1167.7259,975.1643 1190,988.5 C1207.8042,999.1596 1217.5821,986.9397 1236,996.5 C1257.256,1007.5335 1276.5584,1025.6717 1291.4658,1042.4532" style="stroke:#666;stroke-width:1"/><polygon fill="#666" points="1294.772 1046.234 1291.859 1036.826 1291.48 1042.47 1285.836 1042.092 1294.772 1046.234" style="stroke:#666;stroke-width:1"/><text x="1209" y="963.568" fill="#666" font-family="sans-serif" font-size="13" font-weight="bold" lengthAdjust="spacingAndGlyphs" textLength="68">gossips to</text><text x="1191" y="977.912" fill="#666" font-family="sans-serif" font-size="12" font-style="italic" lengthAdjust="spacingAndGlyphs" textLength="104">[UDP port 10000]</text><path id="node1-iptables" fill="none" d="M141.016,1195.9591 C132.9082,1164.6097 124,1121.3303 124,1082.5 C124,487 124,487 124,487 C124,395.5288 445.2366,457.3058 531,425.5 C535.3379,423.8913 539.6877,422.0899 544.0173,420.1392" style="stroke:#666;stroke-width:1"/><polygon fill="#666" points="548.706 417.966 538.858 418.122 544.17 420.069 542.223 425.38 548.706 417.966" style="stroke:#666;stroke-width:1"/><text x="149.5" y="699.068" fill="#666" font-family="sans-serif" font-size="13" font-weight="bold" lengthAdjust="spacingAndGlyphs" textLength="55">syncs to</text><text x="125" y="713.412" fill="#666" font-family="sans-serif" font-size="12" font-style="italic" lengthAdjust="spacingAndGlyphs" textLength="104">[UDP port 10000]</text><path id="core-node2" fill="none" d="M666.3832,912.9029 C719.3978,992.224 805.786,1121.4791 852.5157,1191.3966" style="stroke:#666;stroke-width:1"/><polygon fill="#666" points="855.535 1195.915 853.86 1186.21 852.757 1191.758 847.209 1190.655 855.535 1195.915" style="stroke:#666;stroke-width:1"/><text x="837.5" y="1080.568" fill="#666" font-family="sans-serif" font-size="13" font-weight="bold" lengthAdjust="spacingAndGlyphs" textLength="55">syncs to</text><text x="813" y="1094.912" fill="#666" font-family="sans-serif" font-size="12" font-style="italic" lengthAdjust="spacingAndGlyphs" textLength="104">[UDP port 10000]</text><rect style="stroke:#000;stroke-width:1" width="199" height="112.93" x="1238" y="1577" fill="#DDD" rx="5" ry="5"/><text x="1319" y="1597.535" fill="#000" font-family="sans-serif" font-size="14" font-weight="bold" lengthAdjust="spacingAndGlyphs" textLength="35">Type</text><rect style="stroke:none;stroke-width:1" width="70" height="16.488" x="1244" y="1600.488" fill="#08427B"/><text x="1318" y="1614.023" fill="#000" font-family="sans-serif" font-size="14" lengthAdjust="spacingAndGlyphs" textLength="48">person</text><rect style="stroke:none;stroke-width:1" width="70" height="16.488" x="1244" y="1616.977" fill="#686868"/><text x="1318" y="1630.512" fill="#000" font-family="sans-serif" font-size="14" lengthAdjust="spacingAndGlyphs" textLength="109">external person</text><rect style="stroke:none;stroke-width:1" width="70" height="16.488" x="1244" y="1633.465" fill="#1168BD"/><text x="1318" y="1647" fill="#000" font-family="sans-serif" font-size="14" lengthAdjust="spacingAndGlyphs" textLength="47">system</text><rect style="stroke:none;stroke-width:1" width="70" height="16.488" x="1244" y="1649.953" fill="#999"/><text x="1318" y="1663.488" fill="#000" font-family="sans-serif" font-size="14" lengthAdjust="spacingAndGlyphs" textLength="108">external system</text><rect style="stroke:none;stroke-width:1" width="70" height="16.488" x="1244" y="1666.441" fill="#438DD5"/><text x="1318" y="1679.977" fill="#000" font-family="sans-serif" font-size="14" lengthAdjust="spacingAndGlyphs" textLength="65">container</text><line style="stroke:#000;stroke-width:1" x1="1244" x2="1431" y1="1584" y2="1584"/><line style="stroke:#000;stroke-width:1" x1="1244" x2="1431" y1="1600.488" y2="1600.488"/><line style="stroke:#000;stroke-width:1" x1="1244" x2="1431" y1="1616.977" y2="1616.977"/><line style="stroke:#000;stroke-width:1" x1="1244" x2="1431" y1="1633.465" y2="1633.465"/><line style="stroke:#000;stroke-width:1" x1="1244" x2="1431" y1="1649.953" y2="1649.953"/><line style="stroke:#000;stroke-width:1" x1="1244" x2="1431" y1="1666.441" y2="1666.441"/><line style="stroke:#000;stroke-width:1" x1="1244" x2="1431" y1="1682.93" y2="1682.93"/><line style="stroke:#000;stroke-width:1" x1="1244" x2="1244" y1="1584" y2="1682.93"/><line style="stroke:#000;stroke-width:1" x1="1314" x2="1314" y1="1584" y2="1682.93"/><line style="stroke:#000;stroke-width:1" x1="1431" x2="1431" y1="1584" y2="1682.93"/></g></svg>